<svg width="334" height="255" viewBox="0 0 334 255" fill="none" xmlns="http://www.w3.org/2000/svg">
<path opacity="0.28" d="M166.74 254.64C237.057 254.64 294.06 197.637 294.06 127.32C294.06 57.0031 237.057 0 166.74 0C96.423 0 39.4199 57.0031 39.4199 127.32C39.4199 197.637 96.423 254.64 166.74 254.64Z" fill="#F8D751"/>
<path d="M157.67 143.69C158.27 143.16 158.87 142.63 159.47 142.1C159.78 142.06 160.1 142.01 160.41 141.97C160.63 141.82 160.85 141.68 161.07 141.53C161.56 141.17 162.06 140.8 162.55 140.44C165.31 139.9 168.35 140.71 170.82 138.62C171.34 138.18 172.29 138.26 173.03 138.05C175.47 137.38 177.91 136.68 180.35 135.99C180.75 136.67 181.1 137.89 181.56 137.94C185.6 138.33 187.08 141.81 189.26 144.29C190.52 145.72 191.09 147.81 191.78 149.68C192.3 151.11 192.5 152.65 192.85 154.14C193.37 156.38 194.06 158.6 194.36 160.87C194.68 163.28 195.92 164.4 198.25 163.86C200.5 163.34 201.42 161.19 200.54 158.32C199.21 153.96 198.2 149.45 196.35 145.32C195.26 142.87 192.92 140.92 190.95 138.95C189.48 137.48 187.68 136.34 186.03 135.05C186.41 134.84 186.8 134.64 187.18 134.43C189.62 135.05 192.25 135.18 194.01 137.43C195.17 138.91 196.31 140.47 197.77 141.62C200.94 144.13 201.15 147.88 202.15 151.27C203.39 155.46 204.32 159.74 205.39 163.97C203.2 164.31 201 164.63 198.81 164.99C190.59 166.35 182.35 167.29 174.3 169.99C168.58 171.91 163.38 174.06 159.15 178.38C158.67 177.64 158.28 177.04 157.89 176.43C157.83 175.66 157.77 174.89 157.7 174.12C157.67 173.73 157.64 173.35 157.61 172.96C157.53 172.32 157.45 171.67 157.37 171.03C156.76 168.74 156.14 166.45 155.53 164.17C155.46 163.71 155.39 163.25 155.32 162.79C155.22 162.3 155.16 161.8 155.02 161.33C153.87 157.4 152.98 153.59 155.74 149.79C156.83 148.28 157.1 146.17 157.74 144.33C157.73 144.11 157.7 143.9 157.67 143.69Z" fill="#EC5876"/>
<path d="M304.18 124.11C305.02 126.75 305.86 129.4 306.7 132.04C306.41 133.78 305.21 134.29 303.62 134.62C299.34 135.5 295.01 136.32 290.86 137.65C288.84 138.29 287.3 138.43 285.68 137.14C284.98 134.26 284.5 131.29 283.52 128.5C281.95 124.04 282.51 121.59 286.31 118.64C287.06 118.35 287.81 118.07 288.56 117.78C288.73 117.43 288.91 117.08 289.09 116.73C289.06 116.12 289.03 115.52 289 114.92C288.76 114.37 288.52 113.81 288.28 113.26C288.03 112.92 287.79 112.58 287.55 112.25C286.51 110.59 285.48 108.93 284.44 107.27C283.87 106.71 283.29 106.15 282.72 105.59C279.97 104.17 277.35 102.24 274.43 101.47C271.51 100.69 268.28 100.96 265.18 100.96C237 100.93 208.83 100.94 180.65 100.95C179.62 100.95 178.58 100.93 177.55 100.96C175.57 101.02 174.56 101.99 174.59 104.04C174.63 106.8 174.7 109.56 174.55 112.31C174.45 114.12 174.9 115.5 176.44 116.46C176.44 116.63 176.4 116.8 176.34 116.96C174.06 116.75 173.3 115.24 173.25 113.24C173.19 110.66 173.21 108.08 173.24 105.49C173.3 100.82 174.37 99.81 179.1 99.8C205.1 99.78 231.09 99.76 257.09 99.74C259.5 99.74 261.9 99.75 264.31 99.75C266.22 99.75 268.13 99.75 270.03 99.75C270.71 99.77 271.4 99.8 272.08 99.82C272.44 99.95 272.8 100.08 273.16 100.21C277.3 100.38 280.92 102.11 283.77 104.84C287.08 108.02 290.03 111.66 290.31 116.69C290.34 117.13 291.65 117.49 292.37 117.89C292.62 117.19 293.01 116.49 293.07 115.77C293.14 114.94 292.93 114.08 292.84 113.23C294.24 115.35 295.92 116.61 298.76 116.52C301.85 116.42 303.92 119.16 303.98 122.64C303.38 121.73 302.75 120.84 302.18 119.91C300.64 117.4 299.31 116.88 296.93 118.01C298.84 120.06 301.93 121.73 299.52 125.25C297.28 128.51 292.38 129.34 290.15 128.01C289.1 127.38 287.72 126.24 287.66 125.26C287.55 123.41 288.29 121.51 288.68 119.67C286.76 119.58 284.31 121.24 284.52 123.21C284.92 127.02 285.7 130.81 286.63 134.53C286.83 135.31 288.47 136.39 289.26 136.26C293.97 135.43 298.61 134.26 303.29 133.24C305 132.87 305.45 132.11 304.94 130.29C304.38 128.31 304.4 126.18 304.18 124.11Z" fill="#564F4F"/>
<path d="M198.25 176.72C195.89 180.87 192.72 184.43 188.14 185.7C185.79 186.35 182.88 185.15 180.26 184.61C179.2 184.39 178.24 183.69 177.24 183.22C176.18 182.12 175.29 180.4 174.02 180.05C171.6 179.39 170.32 178 169.54 175.84C171.39 174.99 173.24 174.13 175.1 173.28C177.28 172.64 179.47 172.06 181.63 171.35C186.79 169.66 192.13 169.21 197.5 168.86C199.92 168.7 202.46 168.16 204.46 171.21C203.01 171.87 201.81 172.56 200.51 172.97C198.57 173.58 197.46 174.53 198.25 176.72Z" fill="#F2EDA8"/>
<path d="M13.8898 162.61C14.5398 159.55 11.5398 158.74 10.0498 156.66C12.8898 154.69 15.7198 155.89 18.1898 156.67C21.5598 157.73 24.8498 159.26 27.8798 161.08C32.0098 163.56 35.8898 166.45 39.7998 169.27C40.7598 169.96 42.3098 170.92 41.0798 172.33C40.4998 172.99 39.0098 173.09 37.9598 173.03C36.9798 172.97 36.0098 172.4 35.0698 171.99C33.5298 171.31 32.7998 171.88 32.6498 173.46C30.9798 173.47 29.1498 173.04 27.6798 173.58C23.2698 175.22 16.1598 171.97 15.1298 165.47C14.9698 164.46 14.3098 163.55 13.8898 162.61Z" fill="#F2EDA8"/>
<path d="M318.62 177.09C316.24 179.66 314.02 182.41 311.45 184.77C307.77 188.14 302.49 186.98 298.28 183.32C297.93 181.2 296.75 179.88 294.75 179C294.04 178.69 293.48 177.49 293.36 176.62C293.31 176.25 294.5 175.5 295.23 175.26C299.52 173.87 303.83 172.49 308.18 171.28C312.45 170.1 316.78 169.43 321.69 171.27C320.47 172.09 319.68 172.67 318.84 173.18C316.81 174.42 316.73 175.62 318.62 177.09Z" fill="#F2EDA8"/>
<path d="M318.62 177.09C316.73 175.62 316.81 174.42 318.85 173.18C319.69 172.67 320.48 172.09 321.7 171.27C316.79 169.43 312.46 170.1 308.19 171.28C303.84 172.48 299.54 173.87 295.24 175.26C294.5 175.5 293.32 176.25 293.37 176.62C293.49 177.48 294.05 178.68 294.76 179C296.76 179.88 297.94 181.21 298.29 183.32C296.15 183.17 294.01 183.03 291.89 182.89C288.77 182.67 285.65 182.45 282.52 182.24C282.6 178.44 285.26 176.84 288.26 175.59C290.69 174.57 293.21 173.76 295.64 172.75C303.41 169.52 311.63 168.48 319.89 167.55C323.73 167.12 327.38 166.75 328.6 171.7C329.71 171.32 330.58 171.03 331.46 170.73C330.74 171.51 330.16 172.62 329.27 173C325.76 174.48 322.17 175.74 318.62 177.09Z" fill="#AEAAAB"/>
<path d="M205.39 163.98C204.33 159.74 203.39 155.46 202.15 151.28C201.15 147.89 200.94 144.13 197.77 141.63C196.32 140.48 195.17 138.92 194.01 137.44C192.25 135.19 189.62 135.06 187.18 134.44C187 134.09 186.82 133.75 186.65 133.4C186.47 132.53 186.28 131.67 186.1 130.8C186.06 130.35 186.01 129.9 185.97 129.45C185.54 127.29 185.1 125.13 184.67 122.96C185.44 124.75 186.53 126.47 186.91 128.33C187.69 132.17 187.99 132.06 191.84 132.26C194.76 132.41 197.92 133.46 200.39 135.03C203.07 136.73 205.26 139.36 207.29 141.87C208.22 143.02 208.31 144.87 208.75 146.41C210.02 150.87 211.3 155.34 212.53 159.81C213.16 162.09 213.72 164.4 214.28 166.7C214.38 167.11 214.49 167.71 214.28 167.96C212.38 170.19 210.95 173.01 207.57 173.42C208.21 172.59 208.86 171.75 209.5 170.91C213 169.65 213.4 167.77 211.09 163.44C210.82 161.93 210.64 160.39 210.25 158.91C209.17 154.71 207.78 150.58 206.94 146.34C205.94 141.31 202.6 138.35 198.6 135.86C198.15 135.58 197.27 136 196.59 136.1C196.88 136.73 196.99 137.7 197.48 137.95C202.84 140.69 203.68 146.11 205.25 151.03C206.14 153.84 206.4 156.85 207.35 159.63C208 161.54 208.1 162.91 206.24 164C205.96 164 205.68 163.99 205.39 163.98Z" fill="#F385A0"/>
<path d="M307.16 132.39C307.3 132.27 307.43 132.15 307.57 132.03C308.39 132.23 309.22 132.62 310.04 132.61C317.82 132.52 323.63 136.1 327.14 142.77C328.92 146.16 329.38 150.25 330.42 154.04C330.82 155.51 331.23 156.98 331.54 158.47C332.22 161.7 332.84 164.94 333.48 168.17C333.31 168.14 333.14 168.1 332.97 168.07C332.55 167.2 332.13 166.33 331.7 165.46C331.18 163.48 330.71 161.48 330.14 159.52C329.12 156 327.28 152.53 327.16 148.99C327.01 144.42 324.93 141.27 321.87 138.59C320.25 137.17 318.55 135.13 315.02 135.82C316.62 137.26 317.91 138.12 318.81 139.28C320.74 141.77 323.12 144.18 324.12 147.04C325.68 151.49 326.3 156.28 327.16 160.96C327.3 161.7 326.59 162.6 326.27 163.43C325.47 162.73 324.09 162.11 323.97 161.31C323.08 155.08 321.56 149 318.56 143.51C316.7 140.1 314.13 136.71 310.05 135.67C307.99 135.12 307.38 134.14 307.16 132.39Z" fill="#F385A0"/>
<path d="M205.39 163.98C205.67 163.99 205.95 164 206.24 164.01C207.86 163.82 209.47 163.64 211.09 163.45C213.4 167.78 213 169.66 209.5 170.92C209.13 170.61 208.42 170.27 208.45 170C208.77 166.59 206.1 166.61 204.03 166.32C202.2 166.07 200.27 166.22 198.43 166.5C195.58 166.93 192.77 167.61 189.95 168.21C185.62 169.13 181.27 169.98 176.98 171.08C176.21 171.28 175.71 172.51 175.08 173.27C173.23 174.12 171.38 174.98 169.52 175.83C165.32 175.71 163.05 177.65 162.87 181.48C161.13 182.82 160.05 181.5 158.89 180.51C158.65 180 158.41 179.5 158.17 179C158.08 178.15 157.98 177.3 157.89 176.44C158.28 177.04 158.67 177.65 159.15 178.39C163.38 174.07 168.58 171.92 174.3 170C182.35 167.3 190.58 166.36 198.81 165C201.01 164.64 203.2 164.32 205.39 163.98Z" fill="#B35F7B"/>
<path d="M331.7 165.45C332.12 166.32 332.54 167.19 332.97 168.06C332.69 168.71 332.41 169.36 332.13 170.01C331.9 170.25 331.67 170.48 331.45 170.72C330.57 171.02 329.69 171.32 328.59 171.69C327.37 166.74 323.73 167.11 319.88 167.54C311.62 168.47 303.4 169.52 295.63 172.74C293.2 173.75 290.68 174.57 288.25 175.58C285.26 176.83 282.59 178.44 282.52 182.23C281.61 181.98 280.69 181.74 279.77 181.49C281.35 176.53 284.68 173.42 289.68 172.06C291.73 171.5 293.9 171.14 295.79 170.23C299.91 168.24 304.17 167.5 308.71 167.48C311.19 167.47 313.68 166.57 316.16 166.07C316.65 166.04 317.13 166.01 317.62 165.97C318.53 165.79 319.51 165.75 320.35 165.39C323.67 163.96 326.77 164.17 329.46 166.42C330.32 166.05 331.01 165.75 331.7 165.45Z" fill="#B35F7B"/>
<path d="M175.1 173.27C175.73 172.51 176.23 171.28 177 171.08C181.29 169.98 185.64 169.13 189.97 168.21C192.79 167.61 195.6 166.93 198.45 166.5C200.29 166.22 202.22 166.07 204.05 166.32C206.12 166.6 208.78 166.59 208.47 170C208.44 170.27 209.15 170.61 209.52 170.92C208.88 171.76 208.23 172.59 207.59 173.43C206.7 173.82 205.81 174.21 204.93 174.59C203.78 175.01 202.62 175.43 201.46 175.84C200.89 175.94 200.31 176.04 199.75 176.14C199.26 176.33 198.76 176.52 198.27 176.72C197.48 174.54 198.59 173.59 200.52 172.97C201.81 172.56 203.02 171.87 204.47 171.21C202.47 168.16 199.92 168.7 197.51 168.86C192.15 169.21 186.8 169.65 181.64 171.35C179.47 172.05 177.27 172.63 175.1 173.27Z" fill="#AEAAAB"/>
<path d="M0.660004 150.1C0.440004 149.94 0.22 149.78 0 149.62C0.06 148.95 -0.109988 148.14 0.200012 147.63C2.87001 143.24 5.61001 138.89 8.35001 134.55C10.16 131.69 11.71 128.58 13.93 126.07C17.51 122.02 22.66 121.24 27.73 120.74C28.56 120.66 29.65 121.11 30.29 121.69C31.67 122.93 33 123.02 34.52 122.12C34.68 122.14 34.83 122.14 34.99 122.11C34.95 122.74 34.91 123.38 34.87 124.01C32.26 123.95 29.6 124.17 27.05 123.77C21.96 122.97 17.58 123.81 14.45 128.22C12.34 131.19 10.29 134.2 8.43001 137.33C6.69001 140.25 5.25001 143.34 3.68001 146.36C2.68001 147.6 1.67 148.85 0.660004 150.1Z" fill="#F385A0"/>
<path d="M158.91 180.51C160.07 181.5 161.14 182.83 162.89 181.48C163.08 177.65 165.35 175.71 169.54 175.83C170.32 177.99 171.6 179.38 174.02 180.04C175.29 180.39 176.18 182.11 177.24 183.21C171.83 183.14 166.41 183.12 161 182.98C159.41 182.94 158.86 182.11 158.91 180.51Z" fill="#AEAAAB"/>
<path d="M155.34 162.79C152.74 159 152.29 155.02 154.28 150.82C155.11 149.06 155.86 147.26 156.65 145.49C156.88 145.13 157.11 144.77 157.34 144.41C157.48 144.41 157.62 144.38 157.76 144.33C157.12 146.17 156.86 148.28 155.76 149.79C153.01 153.6 153.89 157.4 155.04 161.33C155.18 161.8 155.24 162.3 155.34 162.79Z" fill="#B35F7B"/>
<path d="M179.74 116.57C180.37 116.63 180.99 116.69 181.62 116.75C181.77 116.92 181.92 117.1 182.07 117.27C182.84 118.4 183.62 119.54 184.39 120.68C184.48 121.44 184.58 122.2 184.67 122.97C185.1 125.14 185.54 127.3 185.97 129.46C185.2 128.3 183.65 127.03 183.79 125.99C184.36 121.88 181.79 119.39 179.74 116.57Z" fill="#564F4F"/>
<path d="M284.43 107.28C285.47 108.94 286.51 110.6 287.54 112.26C286.5 110.59 285.47 108.93 284.43 107.28Z" fill="#F385A0"/>
<path d="M201.45 175.84C202.61 175.42 203.76 175 204.92 174.59C204.21 176.27 202.98 176.47 201.45 175.84Z" fill="#F385A0"/>
<path d="M288.28 113.27C288.52 113.83 288.76 114.38 289 114.93C288.75 114.37 288.51 113.82 288.28 113.27Z" fill="#F385A0"/>
<path d="M332.13 170C332.41 169.35 332.69 168.7 332.97 168.05C333.14 168.08 333.31 168.12 333.48 168.15C333.03 168.77 332.58 169.39 332.13 170Z" fill="#AEAAAB"/>
<path d="M198.25 176.71C198.75 176.52 199.24 176.32 199.73 176.13C199.24 176.33 198.74 176.53 198.25 176.71C198.25 176.71 198.25 176.72 198.25 176.71Z" fill="#F385A0"/>
<path d="M289.08 116.74C288.9 117.09 288.73 117.44 288.55 117.79C288.73 117.44 288.91 117.09 289.08 116.74Z" fill="#F385A0"/>
<path d="M157.75 144.32C157.61 144.37 157.47 144.4 157.33 144.4C157.24 144.15 157.14 143.91 157.04 143.66C157.25 143.67 157.46 143.67 157.67 143.68C157.7 143.9 157.73 144.11 157.75 144.32Z" fill="#AEAAAB"/>
<path d="M186.04 135.05C187.69 136.34 189.49 137.48 190.96 138.95C192.94 140.92 195.27 142.88 196.36 145.32C198.21 149.45 199.22 153.96 200.55 158.32C201.42 161.19 200.51 163.34 198.26 163.86C195.93 164.4 194.68 163.29 194.37 160.87C194.07 158.6 193.38 156.38 192.86 154.14C192.52 152.65 192.31 151.11 191.79 149.68C191.11 147.81 190.53 145.72 189.27 144.29C187.09 141.81 185.6 138.32 181.57 137.94C181.11 137.9 180.76 136.67 180.36 135.99C181.63 135.52 182.89 135.05 184.16 134.59C184.45 134.58 184.73 134.57 185.02 134.56C185.35 134.73 185.7 134.89 186.04 135.05Z" fill="#F385A0"/>
<path d="M184.15 134.59C182.88 135.06 181.62 135.53 180.35 135.99C177.91 136.68 175.47 137.37 173.03 138.05C172.29 138.25 171.34 138.18 170.82 138.62C168.35 140.72 165.31 139.91 162.55 140.44C164 139.22 166.34 138.59 165.57 135.9C166.9 136.45 166.46 139.26 169.1 138.3C173.03 136.87 177.08 135.77 181.11 134.65C182.06 134.39 183.14 134.6 184.15 134.59Z" fill="#B35F7B"/>
<path d="M157.38 171.04C156.45 168.83 154.53 166.89 155.54 164.17C156.16 166.46 156.77 168.75 157.38 171.04Z" fill="#B35F7B"/>
<path d="M186.04 135.05C185.7 134.89 185.36 134.73 185.01 134.57C185.56 134.18 186.11 133.79 186.65 133.4C186.83 133.75 187.01 134.09 187.18 134.44C186.81 134.64 186.42 134.84 186.04 135.05Z" fill="#B35F7B"/>
<path d="M157.72 174.13C157.69 173.74 157.66 173.35 157.63 172.97C157.66 173.36 157.69 173.74 157.72 174.13Z" fill="#B35F7B"/>
<path d="M160.42 141.97C160.64 141.82 160.86 141.68 161.08 141.53C160.85 141.68 160.64 141.83 160.42 141.97Z" fill="#B35F7B"/>
<path d="M257.08 99.7401C231.08 99.7601 205.09 99.7801 179.09 99.8001C174.36 99.8001 173.29 100.82 173.23 105.49C173.2 108.07 173.18 110.66 173.24 113.24C173.29 115.25 174.06 116.76 176.33 116.96C176.31 117.46 176.28 117.96 176.26 118.46C175.1 118.32 173.78 117.76 172.81 118.13C171.05 118.8 170.19 118.08 169.34 116.83C169.21 111.72 169.07 106.61 168.94 101.5C167.97 100.93 167.01 99.8601 166.04 99.8601C138.95 99.7701 111.86 99.7901 84.7701 99.8301C84.0201 99.8301 83.2801 100.32 82.5301 100.57C81.3601 100.57 80.2001 100.58 79.0301 100.58C77.0901 100.58 75.1501 100.58 73.2101 100.58C65.5301 100.55 60.1601 104.46 56.1301 110.63C55.9701 110.98 55.8001 111.33 55.6401 111.68C55.6401 112.03 55.6401 112.38 55.6301 112.73C55.8401 113.06 56.0501 113.38 56.2601 113.71C56.7401 114.11 57.2301 114.52 57.7101 114.92C57.1701 116.09 56.6301 117.25 56.0901 118.42C55.2501 116.91 54.7801 114.72 53.5001 114.04C51.2901 112.87 50.8101 111.55 51.3801 109.41C53.4601 107.04 55.5401 104.67 57.6101 102.3C57.8001 102.11 57.9902 101.93 58.1702 101.74C60.8402 98.8101 64.4401 97.7201 68.0901 96.7401C68.4501 96.6301 68.8101 96.5201 69.1801 96.4101C73.0201 96.3001 76.8701 96.1401 80.7101 96.0901C82.5301 96.0701 83.9201 95.6001 84.3601 93.6301C85.6401 90.6601 85.6601 87.6801 84.3601 84.7101C84.3001 84.3801 84.2401 84.0501 84.1901 83.7201C84.0101 83.3701 83.8401 83.0201 83.6601 82.6801C83.3201 82.4501 82.9701 82.2301 82.6301 82.0001C81.9101 81.7101 81.2001 81.1701 80.4801 81.1701C71.0401 81.1201 61.6102 81.1301 52.1702 81.1601C51.6102 81.1601 51.0601 81.4201 50.5001 81.5601C49.6301 81.4101 48.7601 81.2601 47.8901 81.1101C48.7401 80.7801 49.5901 80.1701 50.4401 80.1701C60.3601 80.1001 70.2801 80.1301 80.2001 80.1201C81.1001 80.1201 82.0001 80.0401 82.9001 79.9901C83.0001 79.6801 83.1001 79.3601 83.2001 79.0501C82.4501 78.7101 81.7201 78.1201 80.9501 78.0801C76.4001 77.8201 71.8501 77.7501 67.3001 77.5001C64.4401 77.3401 61.5801 77.1001 58.7501 76.6401C58.0301 76.5201 56.9801 75.4601 56.9701 74.8101C56.9601 74.1201 57.8701 73.0801 58.6101 72.7901C60.3501 72.1101 62.2202 71.4701 64.0602 71.3901C71.1102 71.0701 78.1601 70.9401 85.2101 70.8201C97.0901 70.6101 108.98 70.3201 120.86 70.3301C136.63 70.3501 152.39 70.6001 168.16 70.8201C176.08 70.9301 183.99 71.2001 191.91 71.3101C197.13 71.3901 202.35 71.2901 207.57 71.3601C208.75 71.3801 210.22 71.4001 211.02 72.0601C211.98 72.8701 212.83 74.3401 212.9 75.5701C212.99 77.3201 211.39 77.4801 209.89 77.5301C200.56 77.8401 191.23 78.1901 181.9 78.5801C181.11 78.6101 180.34 79.1001 179.57 79.3701C179.63 79.6201 179.69 79.8701 179.75 80.1201C180.75 80.1201 181.74 80.1201 182.74 80.1201C203.96 80.1201 225.19 80.1701 246.41 80.0601C249.16 80.0401 250.55 81.0001 250.67 83.5801C250.83 87.1901 250.92 90.8201 250.72 94.4301C250.62 96.1801 249.42 97.3801 247.34 97.2101C246.2 97.1201 245.05 97.1901 243.9 97.1901C243.86 97.4801 243.82 97.7801 243.78 98.0701C244.68 98.3001 245.57 98.7001 246.48 98.7301C249.32 98.8201 252.18 98.7001 255.02 98.8101C255.72 98.8301 256.39 99.4101 257.08 99.7401ZM209.41 95.7801C209.41 95.7601 209.41 95.7501 209.41 95.7301C221.57 95.7301 233.72 95.7401 245.88 95.7201C248.94 95.7101 249.53 95.0701 249.54 92.0801C249.55 90.2701 249.5 88.4601 249.59 86.6501C249.77 82.9701 249.08 82.1701 245.45 82.1701C227.26 82.1601 209.07 82.1501 190.88 82.1501C184.93 82.1501 178.98 82.1301 173.04 82.1701C170.08 82.1901 169.41 82.9001 169.31 85.8601C169.26 87.4101 169.33 88.9601 169.29 90.5101C169.14 95.3501 169.56 95.7801 174.5 95.7801C186.13 95.7801 197.77 95.7801 209.41 95.7801ZM126.12 95.7701C126.12 95.7601 126.12 95.7501 126.12 95.7501C137.07 95.7501 148.02 95.7501 158.97 95.7501C162.59 95.7501 163.29 95.0201 163.24 91.3001C163.22 89.5801 163.26 87.8501 163.23 86.1301C163.16 82.9301 162.44 82.1901 159.19 82.1901C137.11 82.1601 115.04 82.1601 92.9601 82.1201C90.8101 82.1201 89.7101 83.1101 89.6301 85.1801C89.5501 87.2501 89.6001 89.3201 89.5801 91.3901C89.5301 95.2801 90.0001 95.7801 93.7701 95.7801C104.56 95.7701 115.34 95.7701 126.12 95.7701Z" fill="#2A2929"/>
<path d="M257.08 99.74C256.39 99.41 255.72 98.83 255.02 98.8C252.18 98.69 249.33 98.81 246.48 98.72C245.58 98.69 244.68 98.29 243.78 98.06C243.82 97.77 243.86 97.47 243.9 97.18C245.05 97.18 246.2 97.11 247.34 97.2C249.41 97.37 250.62 96.17 250.72 94.42C250.92 90.81 250.83 87.18 250.67 83.57C250.55 80.99 249.16 80.04 246.41 80.05C225.19 80.17 203.96 80.11 182.74 80.11C181.74 80.11 180.75 80.11 179.75 80.11C179.69 79.86 179.63 79.61 179.57 79.36C180.35 79.09 181.12 78.6 181.9 78.57C191.23 78.17 200.56 77.83 209.89 77.52C211.39 77.47 212.99 77.3 212.9 75.56C212.83 74.33 211.99 72.86 211.02 72.05C210.23 71.38 208.75 71.36 207.57 71.35C202.35 71.28 197.13 71.38 191.91 71.3C183.99 71.18 176.08 70.91 168.16 70.81C152.39 70.6 136.63 70.34 120.86 70.32C108.98 70.3 97.0901 70.6 85.2101 70.81C78.1601 70.93 71.1001 71.06 64.0601 71.38C62.2201 71.46 60.3501 72.1 58.6101 72.78C57.8701 73.07 56.9601 74.11 56.9701 74.8C56.9801 75.44 58.0301 76.51 58.7501 76.63C61.5701 77.09 64.4401 77.33 67.3001 77.49C71.8501 77.74 76.4001 77.81 80.9501 78.07C81.7201 78.11 82.4501 78.71 83.2001 79.04C83.1001 79.35 83.0001 79.67 82.9001 79.98C82.0001 80.02 81.1001 80.11 80.2001 80.11C70.2801 80.12 60.3601 80.09 50.4401 80.16C49.5901 80.17 48.7401 80.77 47.8901 81.1C47.5101 80.98 47.1301 80.86 46.7501 80.74C45.3201 78.24 45.0001 75.55 45.1901 72.73C45.2301 72.06 44.8001 71.37 44.5801 70.68C43.9801 68.03 45.6401 67.87 47.5801 67.87C64.6601 67.88 81.7401 67.87 98.8301 67.88C163.19 67.88 227.55 67.89 291.91 67.9C292.86 67.9 293.8 67.96 294.75 68C295.11 68.83 295.73 69.65 295.76 70.5C295.82 72.28 295.49 74.08 295.45 75.87C295.38 79.77 294.48 80.69 290.52 80.69C279.66 80.69 268.8 80.67 257.95 80.68C255.35 80.68 253.01 82.51 253.08 84.92C253.16 88.15 253.67 91.37 254 94.6C254.3 95.27 254.45 96.24 254.96 96.51C255.47 96.77 256.35 96.33 257.07 96.19C258.62 96.23 260.16 96.26 261.71 96.3C262.06 96.76 262.42 97.22 262.77 97.68C263.12 97.21 263.46 96.74 263.81 96.27C266.56 96.29 269.31 96.31 272.06 96.33C272.88 98.06 274.9 98.49 276.33 97.23C276.97 97.43 277.61 97.62 278.25 97.82C284.24 101.23 289.29 105.6 292.58 111.78C292.67 112.27 292.76 112.75 292.84 113.24C292.93 114.09 293.15 114.95 293.07 115.78C293.01 116.5 292.61 117.19 292.37 117.9C291.65 117.5 290.34 117.14 290.31 116.7C290.02 111.67 287.08 108.03 283.77 104.85C280.92 102.12 277.3 100.39 273.16 100.22C272.8 100.09 272.44 99.96 272.08 99.83C271.4 99.81 270.71 99.78 270.03 99.76C268.58 98.33 265.75 98.33 264.31 99.76C261.89 99.75 259.49 99.74 257.08 99.74Z" fill="#090506"/>
<path d="M279.76 181.49C279.14 179.16 278.47 176.85 277.91 174.51C276.92 170.36 276.47 166.01 274.94 162.08C272.05 154.68 274.71 148.82 279.21 143.34C280.3 142.01 282.22 141.39 283.54 140.2C284.44 139.39 284.97 138.17 285.67 137.14C287.3 138.44 288.84 138.3 290.86 137.65C295.01 136.32 299.34 135.5 303.62 134.62C305.21 134.29 306.41 133.78 306.7 132.04C306.85 132.15 307 132.26 307.16 132.38C307.38 134.14 307.99 135.12 310.06 135.65C314.14 136.68 316.7 140.07 318.57 143.49C321.57 148.98 323.09 155.06 323.98 161.29C324.09 162.09 325.48 162.71 326.28 163.41C326.6 162.58 327.31 161.69 327.17 160.94C326.31 156.26 325.69 151.48 324.13 147.02C323.13 144.16 320.75 141.74 318.82 139.26C317.92 138.1 316.63 137.24 315.03 135.8C318.55 135.11 320.26 137.16 321.88 138.57C324.94 141.25 327.02 144.4 327.17 148.97C327.29 152.51 329.13 155.98 330.15 159.5C330.72 161.47 331.19 163.46 331.71 165.44C331.02 165.74 330.33 166.04 329.45 166.42C326.76 164.17 323.66 163.96 320.34 165.39C319.5 165.75 318.53 165.79 317.61 165.97C320.9 164.01 321.66 161.07 320.57 157.65C319.43 154.07 317.59 150.65 316.86 147.01C316.26 144.04 314.83 141.97 312.71 140.19C311.24 138.96 309.36 138.19 308 136.87C306.46 135.38 304.86 135.2 303.05 135.8C302.18 136.09 301.42 136.75 300.62 137.24C301.32 137.89 301.93 138.71 302.73 139.17C305.67 140.86 308.52 142.63 309.67 146.05C310.72 149.16 311.64 152.32 312.59 155.47C313.25 157.66 314.15 159.82 314.44 162.06C314.65 163.66 314.81 165.05 316.14 166.07C313.66 166.57 311.18 167.46 308.69 167.48C304.14 167.5 299.88 168.25 295.77 170.23C293.88 171.14 291.72 171.5 289.66 172.06C284.66 173.43 281.33 176.53 279.76 181.49Z" fill="#EC5876"/>
<path d="M56.0898 118.41C56.6298 117.24 57.1698 116.08 57.7098 114.91C58.2398 115.56 58.7698 116.21 59.2998 116.86C59.4198 118.51 59.5498 120.16 59.6698 121.8C59.3798 122.41 59.0898 123.01 58.8098 123.62C56.3998 125.55 54.8998 128.01 54.4898 131.11C54.4698 131.28 54.4098 131.43 54.3098 131.56C52.2198 130.95 50.0198 130.59 48.0798 129.66C44.7198 128.05 41.5398 126.07 38.2398 124.3C36.8798 123.57 36.5698 122.58 37.3198 121.33C39.6298 117.48 42.0098 113.66 44.3498 109.82C45.6698 109.82 46.9898 109.82 48.3198 109.81C48.3898 110.09 48.4498 110.36 48.5198 110.64C48.1498 111.18 47.7898 111.71 47.4198 112.25C46.5798 112.78 45.7298 113.31 44.8898 113.84C44.3398 114.43 43.4098 114.96 43.3098 115.62C42.8798 118.56 46.2798 122.7 49.2098 122.98C49.4498 123 49.7198 122.63 49.9798 122.44C51.3098 122.44 52.6398 122.44 53.9698 122.44C55.5198 122.59 55.6998 121.63 55.5898 120.43C55.7598 119.76 55.9198 119.09 56.0898 118.41Z" fill="#090506"/>
<path d="M304.18 124.11C304.4 126.17 304.38 128.3 304.93 130.28C305.44 132.1 304.99 132.86 303.28 133.23C298.61 134.25 293.96 135.42 289.25 136.25C288.46 136.39 286.82 135.31 286.62 134.52C285.69 130.8 284.91 127.01 284.51 123.2C284.3 121.23 286.76 119.57 288.67 119.66C288.29 121.51 287.55 123.41 287.65 125.25C287.71 126.23 289.09 127.37 290.14 128C292.37 129.33 297.27 128.5 299.51 125.24C301.92 121.73 298.83 120.05 296.92 118C299.29 116.87 300.63 117.39 302.17 119.9C302.74 120.83 303.37 121.72 303.97 122.63C304.04 123.13 304.11 123.62 304.18 124.11Z" fill="#090506"/>
<path d="M254 94.5899C253.67 91.3599 253.17 88.1399 253.08 84.9099C253.02 82.5099 255.35 80.6699 257.95 80.6699C268.81 80.6599 279.67 80.6799 290.52 80.6799C294.48 80.6799 295.37 79.7499 295.45 75.8599C295.48 74.0699 295.81 72.2799 295.76 70.4899C295.73 69.6499 295.11 68.8299 294.75 67.9899C296.6 67.6399 297.26 68.5099 297.18 70.2599C297.09 72.0599 297.05 73.8699 297.03 75.6699C296.99 79.6099 294.81 82.0399 290.83 82.0499C280.42 82.0899 270 82.0199 259.59 81.8799C256.02 81.8299 254.95 82.6799 254.95 86.3299C254.95 89.0799 254.98 91.8399 255 94.5899C254.67 94.5899 254.33 94.5899 254 94.5899Z" fill="#564F4F"/>
<path d="M53.9702 122.43C52.6402 122.43 51.3102 122.43 49.9802 122.43C45.1602 120.01 43.7002 117.54 44.8902 113.84C45.7302 113.31 46.5802 112.78 47.4202 112.25C47.7902 111.71 48.1502 111.18 48.5202 110.64C48.4502 110.36 48.3902 110.09 48.3202 109.81C49.3402 109.67 50.3602 109.53 51.3802 109.39C50.8002 111.52 51.2802 112.85 53.5002 114.02C54.7802 114.7 55.2602 116.89 56.0902 118.4C55.9202 119.07 55.7602 119.74 55.5902 120.41C55.0502 121.1 54.5102 121.77 53.9702 122.43Z" fill="#564F4F"/>
<path d="M44.3499 109.83C41.9999 113.66 39.6299 117.48 37.3199 121.34C36.5699 122.59 36.8899 123.58 38.2399 124.31C41.5299 126.07 44.7099 128.06 48.0799 129.67C50.0199 130.59 52.2199 130.95 54.3099 131.57C53.9799 132.22 53.6499 132.86 53.3199 133.51C51.1999 132.67 49.0299 131.93 46.9599 130.97C44.3599 129.76 41.8399 128.36 39.2799 127.05C37.8099 126.04 36.3499 125.03 34.8799 124.02C34.9199 123.39 34.9599 122.75 34.9999 122.12C36.5999 119.57 38.2499 117.05 39.7799 114.46C40.9299 112.51 41.6599 110.22 44.3499 109.83Z" fill="#564F4F"/>
<path d="M50.5098 81.55C51.0698 81.41 51.6198 81.15 52.1798 81.15C61.6198 81.12 71.0498 81.11 80.4898 81.16C81.2098 81.16 81.9198 81.7 82.6398 81.99C72.5598 82.02 62.4798 82.06 52.3998 82.06C51.7698 82.07 51.1398 81.73 50.5098 81.55Z" fill="#564F4F"/>
<path d="M292.57 111.77C289.28 105.59 284.23 101.22 278.24 97.8101C282.67 98.0501 285.56 101.01 288.15 103.99C290.07 106.2 291.13 109.15 292.57 111.77Z" fill="#564F4F"/>
<path d="M44.5902 70.6899C44.8102 71.3699 45.2402 72.0699 45.2002 72.7399C45.0102 75.5699 45.3302 78.2599 46.7602 80.7499C46.0002 79.7199 44.7302 78.7499 44.5702 77.6299C44.2602 75.3599 44.5502 73.0099 44.5902 70.6899Z" fill="#564F4F"/>
<path d="M84.3701 84.71C85.6701 87.68 85.6601 90.66 84.3701 93.63C84.3701 90.65 84.3701 87.68 84.3701 84.71Z" fill="#564F4F"/>
<path d="M276.33 97.2201C274.9 98.4801 272.88 98.0601 272.06 96.3201C272.74 96.3301 273.42 96.3401 274.1 96.3501C274.73 96.5301 275.37 96.7201 276 96.9001C276.19 96.9201 276.3 97.0201 276.33 97.2201Z" fill="#2A2929"/>
<path d="M254 94.59C254.34 94.59 254.68 94.59 255.02 94.59C255.71 95.12 256.39 95.65 257.08 96.17C256.36 96.31 255.48 96.76 254.97 96.49C254.44 96.23 254.3 95.26 254 94.59Z" fill="#2A2929"/>
<path d="M263.81 96.26C263.46 96.73 263.12 97.2 262.77 97.67C262.42 97.21 262.06 96.75 261.71 96.29C262.41 96.28 263.11 96.27 263.81 96.26Z" fill="#2A2929"/>
<path d="M275.99 96.9C275.36 96.72 274.72 96.53 274.09 96.35C274.73 96.53 275.36 96.72 275.99 96.9Z" fill="#564F4F"/>
<path d="M69.1901 96.4C68.8301 96.51 68.4701 96.62 68.1001 96.73C68.4601 96.63 68.8201 96.52 69.1901 96.4Z" fill="#564F4F"/>
<path d="M83.6602 82.67C83.8402 83.02 84.0102 83.37 84.1902 83.71C84.0202 83.37 83.8402 83.02 83.6602 82.67Z" fill="#564F4F"/>
<path d="M58.1801 101.74C57.9901 101.93 57.8001 102.11 57.6201 102.3C57.8001 102.11 57.9901 101.93 58.1801 101.74Z" fill="#564F4F"/>
<path d="M39.2802 127.04C41.8302 128.36 44.3502 129.75 46.9602 130.96C49.0202 131.92 51.1902 132.66 53.3202 133.5C54.5802 134.88 55.8102 136.28 57.0902 137.64C60.0102 140.74 62.9302 149.43 60.6102 154.28C58.5502 158.59 56.6202 162.97 54.3502 167.16C53.0702 169.53 51.2202 171.6 49.6202 173.8C47.3402 171.5 45.1002 169.14 42.7602 166.91C35.7202 160.18 27.2202 155.92 18.2202 152.53C20.5502 148.19 22.4702 143.56 25.3002 139.57C28.9902 134.36 33.4902 129.82 40.6602 129.79C40.9502 129.79 41.2302 129.56 41.8002 129.32C40.7302 128.53 39.8902 127.91 39.0602 127.29C39.1202 127.2 39.2002 127.12 39.2802 127.04Z" fill="#EC5876"/>
<path d="M176.26 118.46C176.28 117.96 176.31 117.46 176.33 116.96C176.39 116.8 176.43 116.63 176.43 116.46C177.53 116.5 178.63 116.53 179.74 116.56C181.79 119.38 184.36 121.88 183.79 125.97C183.65 127 185.2 128.28 185.97 129.44C186.01 129.89 186.06 130.34 186.1 130.79C185.79 131.36 185.48 131.92 185.16 132.49C184.62 132.78 184.08 133.07 183.54 133.36C182.85 133.41 182.17 133.47 181.48 133.52C180.96 133.64 180.43 133.77 179.91 133.89C179.4 133.93 178.88 133.97 178.37 134.01C176.9 133.04 175.72 132.88 175.34 135.06C173.93 135.4 172.53 135.75 171.12 136.09C169.72 135.9 168.33 135.71 166.93 135.52C166.75 135 166.58 134.47 166.4 133.95C166.09 133.6 165.78 133.24 165.47 132.89C165.23 132.05 165 131.2 164.77 130.35C164.65 127.23 164.53 124.11 164.41 121C165.6 120.24 166.79 119.48 167.98 118.72C168.48 119.12 168.99 119.52 169.57 119.98C169.36 120.32 169.21 120.62 169 120.87C166.52 123.8 167.47 126.74 171.13 127.76C173.96 128.55 176.5 127.76 178.5 125.98C179.54 125.06 180.41 123.07 180.16 121.8C179.83 120.14 178.58 118.39 176.26 118.46Z" fill="#090506"/>
<path d="M18.2102 152.52C27.2102 155.91 35.7102 160.18 42.7602 166.91C45.1002 169.15 47.3302 171.5 49.6202 173.8C49.2802 174.73 49.1802 175.94 48.5202 176.52C47.6402 177.3 45.7602 177.63 45.8202 175.94C45.9702 171.97 42.8802 170.54 40.6902 168.43C35.1002 163.06 28.3602 159.37 21.4102 156.16C16.7702 154.01 11.8802 152.38 7.01016 150.79C4.73016 150.05 3.49017 151.43 3.81017 154.24C3.55017 154.17 3.29015 154.11 3.03015 154.04C2.24015 152.72 1.45016 151.41 0.660156 150.09C1.67016 148.84 2.68016 147.59 3.70016 146.34C5.37016 147.34 7.04016 148.35 8.71016 149.35C10.7902 150.21 12.8502 151.15 14.9602 151.91C15.9802 152.29 17.1202 152.33 18.2102 152.52Z" fill="#B35F7B"/>
<path d="M176.26 118.46C178.58 118.39 179.83 120.14 180.16 121.81C180.41 123.08 179.54 125.07 178.5 125.99C176.5 127.77 173.96 128.56 171.13 127.77C167.47 126.75 166.52 123.8 169 120.88C169.21 120.63 169.35 120.33 169.57 119.99C168.99 119.53 168.49 119.13 167.98 118.73C168.43 118.1 168.88 117.46 169.33 116.83C170.18 118.08 171.04 118.8 172.8 118.13C173.78 117.76 175.1 118.32 176.26 118.46Z" fill="#564F4F"/>
<path d="M82.52 100.57C83.27 100.31 84.01 99.83 84.76 99.83C111.85 99.79 138.94 99.78 166.03 99.86C167 99.86 167.96 100.93 168.93 101.5C167.51 101.26 166.1 100.82 164.68 100.82C137.8 100.78 110.92 100.79 84.03 100.78C83.53 100.78 83.03 100.64 82.52 100.57Z" fill="#564F4F"/>
<path d="M166.42 133.97C166.6 134.49 166.77 135.02 166.95 135.54C167.95 138.62 169.7 136.21 171.14 136.11C172.55 135.77 173.95 135.42 175.36 135.08C176.37 134.73 177.38 134.38 178.39 134.03C178.9 133.99 179.42 133.95 179.93 133.91C180.45 133.79 180.98 133.66 181.5 133.54C182.19 133.49 182.87 133.43 183.56 133.38C184.1 133.09 184.64 132.8 185.18 132.51C185.49 131.94 185.8 131.38 186.12 130.81C186.3 131.68 186.49 132.54 186.67 133.41C186.12 133.8 185.57 134.19 185.03 134.58C184.74 134.59 184.45 134.6 184.17 134.61C183.16 134.62 182.08 134.41 181.14 134.67C177.11 135.79 173.06 136.89 169.13 138.32C166.49 139.28 166.92 136.47 165.6 135.92C165.6 135.25 165.61 134.58 165.61 133.92C165.86 133.92 166.14 133.94 166.42 133.97Z" fill="#564F4F"/>
<path d="M164.41 121.02C164.53 124.14 164.65 127.26 164.77 130.37C164.13 127.45 162.22 124.65 163.89 121.51C164.01 121.31 164.24 121.18 164.41 121.02Z" fill="#2A2929"/>
<path d="M54.4902 131.11C54.8902 128.02 56.3902 125.56 58.8102 123.62C57.3702 126.12 55.9302 128.62 54.4902 131.11Z" fill="#564F4F"/>
<path d="M59.6698 121.81C59.5498 120.16 59.4198 118.51 59.2998 116.87C60.2798 118.45 61.0498 120.05 59.6698 121.81Z" fill="#564F4F"/>
<path d="M166.42 133.97C166.14 133.95 165.86 133.93 165.58 133.9C165.55 133.57 165.51 133.24 165.48 132.91C165.79 133.26 166.11 133.61 166.42 133.97Z" fill="#2A2929"/>
<path d="M55.6299 111.68C55.7899 111.33 55.9599 110.98 56.1199 110.63C55.9599 110.98 55.7899 111.33 55.6299 111.68Z" fill="#564F4F"/>
<path d="M56.2501 113.71C56.0401 113.38 55.8301 113.06 55.6201 112.73C55.8301 113.06 56.0401 113.38 56.2501 113.71Z" fill="#564F4F"/>
<path d="M264.3 99.75C265.75 98.31 268.57 98.31 270.02 99.75C268.12 99.75 266.21 99.75 264.3 99.75Z" fill="#2A2929"/>
<path d="M272.07 99.8201C272.43 99.9501 272.79 100.08 273.15 100.21C272.79 100.08 272.43 99.9501 272.07 99.8201Z" fill="#2A2929"/>
<path d="M211.09 163.45C209.47 163.64 207.86 163.82 206.24 164.01C208.09 162.92 208 161.55 207.35 159.64C206.4 156.86 206.14 153.85 205.25 151.04C203.68 146.11 202.84 140.7 197.48 137.96C197 137.71 196.88 136.75 196.59 136.11C197.27 136.01 198.15 135.59 198.6 135.87C202.6 138.36 205.94 141.31 206.94 146.35C207.78 150.59 209.17 154.72 210.25 158.92C210.64 160.4 210.82 161.93 211.09 163.45Z" fill="#EC5876"/>
<path d="M316.15 166.08C314.82 165.06 314.66 163.67 314.45 162.07C314.16 159.83 313.26 157.67 312.6 155.48C311.64 152.33 310.73 149.17 309.68 146.06C308.52 142.64 305.67 140.87 302.74 139.18C301.93 138.72 301.33 137.9 300.63 137.25C301.44 136.76 302.19 136.1 303.06 135.81C304.86 135.2 306.47 135.39 308.01 136.88C309.37 138.2 311.25 138.97 312.72 140.2C314.84 141.97 316.28 144.05 316.87 147.02C317.61 150.67 319.44 154.08 320.58 157.66C321.67 161.09 320.91 164.03 317.62 165.98C317.12 166.01 316.63 166.04 316.15 166.08Z" fill="#F385A0"/>
<path d="M8.71019 149.36C7.04019 148.36 5.3702 147.35 3.7002 146.35C5.2702 143.33 6.7202 140.24 8.4502 137.32C10.3102 134.19 12.3602 131.18 14.4702 128.21C17.6002 123.8 21.9802 122.96 27.0702 123.76C29.6302 124.16 32.2802 123.94 34.8902 124C36.3602 125.01 37.8202 126.02 39.2902 127.03C39.2102 127.11 39.1302 127.19 39.0502 127.27C37.1502 126.82 35.2502 126.01 33.4102 127.54C33.0902 127.81 32.3702 127.54 31.9002 127.7C30.3302 128.22 28.7902 128.81 27.2502 129.41C26.7102 129.62 26.1902 130.26 25.7102 130.21C22.6102 129.9 21.6402 132.29 20.4802 134.3C18.5202 137.71 16.6402 141.17 14.8802 144.68C13.5602 147.33 11.7402 149.1 8.71019 149.36ZM26.1802 125.68C24.6902 125.55 23.8602 125.27 23.1302 125.45C17.9802 126.73 15.5602 131.11 12.8502 134.99C10.6102 138.19 8.9302 141.78 6.9502 145.17C6.0902 146.64 6.70019 147.43 8.13019 147.33C9.02019 147.27 10.1702 146.66 10.6602 145.93C12.1702 143.65 13.5902 141.27 14.7402 138.78C17.1502 133.57 20.5302 129.25 26.1802 125.68Z" fill="#EC5876"/>
<path d="M44.8899 113.85C43.6999 117.54 45.16 120.02 49.98 122.44C49.72 122.63 49.4499 123 49.2099 122.98C46.2799 122.71 42.88 118.56 43.31 115.62C43.41 114.97 44.3399 114.44 44.8899 113.85Z" fill="#2A2929"/>
<path d="M48.5199 110.65C48.1499 111.18 47.7899 111.72 47.4199 112.26C47.7899 111.72 48.1499 111.19 48.5199 110.65Z" fill="#2A2929"/>
<path d="M53.9702 122.43C54.5102 121.76 55.0502 121.09 55.5902 120.42C55.7002 121.62 55.5202 122.58 53.9702 122.43Z" fill="#2A2929"/>
<path d="M8.70996 149.36C11.74 149.1 13.56 147.33 14.88 144.7C16.64 141.19 18.52 137.73 20.48 134.32C21.64 132.31 22.61 129.92 25.71 130.23C26.19 130.28 26.71 129.64 27.25 129.43C28.79 128.82 30.33 128.24 31.9 127.72C32.37 127.56 33.09 127.83 33.41 127.56C35.26 126.02 37.15 126.84 39.05 127.29C39.89 127.91 40.73 128.53 41.79 129.32C41.22 129.56 40.94 129.79 40.65 129.79C33.48 129.83 28.98 134.37 25.29 139.57C22.47 143.56 20.54 148.18 18.21 152.53C17.12 152.34 15.98 152.3 14.96 151.93C12.84 151.16 10.79 150.23 8.70996 149.36Z" fill="#F385A0"/>
<path d="M171.13 136.1C169.7 136.2 167.95 138.61 166.94 135.53C168.34 135.72 169.73 135.91 171.13 136.1Z" fill="#2A2929"/>
<path d="M178.38 134.03C177.37 134.38 176.36 134.73 175.35 135.08C175.73 132.9 176.91 133.06 178.38 134.03Z" fill="#2A2929"/>
<path d="M181.49 133.53C180.97 133.65 180.44 133.78 179.92 133.9C180.44 133.78 180.96 133.66 181.49 133.53Z" fill="#2A2929"/>
<path d="M185.17 132.5C184.63 132.79 184.09 133.08 183.55 133.37C184.09 133.08 184.63 132.79 185.17 132.5Z" fill="#2A2929"/>
<path d="M26.1798 125.68C20.5298 129.25 17.1398 133.57 14.7298 138.78C13.5798 141.26 12.1598 143.64 10.6498 145.93C10.1698 146.66 9.00984 147.27 8.11984 147.33C6.68984 147.43 6.08983 146.64 6.93983 145.17C8.91983 141.78 10.5998 138.19 12.8398 134.99C15.5498 131.12 17.9798 126.74 23.1198 125.45C23.8598 125.27 24.6998 125.55 26.1798 125.68Z" fill="#F385A0"/>
</svg>
