<svg width="255" height="394" viewBox="0 0 255 394" fill="none" xmlns="http://www.w3.org/2000/svg">
<path opacity="0.28" d="M127.32 323.991C197.637 323.991 254.64 266.987 254.64 196.671C254.64 126.354 197.637 69.3506 127.32 69.3506C57.0031 69.3506 0 126.354 0 196.671C0 266.987 57.0031 323.991 127.32 323.991Z" fill="#F8D751"/>
<path d="M85.6602 240.001C85.6802 239.741 85.7002 239.491 85.7202 239.231C87.4102 239.161 89.0902 239.081 90.7802 239.011C90.1902 239.571 89.5902 240.141 89.0202 240.691C91.0902 243.011 93.5802 241.891 95.9702 241.901C103.74 241.941 111.51 242.201 119.28 242.341C123.38 242.411 127.47 242.421 131.57 242.451C131.57 243.821 131.58 245.191 131.58 246.551C131.58 247.541 131.58 248.541 131.57 249.531C131.41 249.771 131.13 250.001 131.11 250.261C130.47 257.561 129.93 264.871 129.22 272.171C128.83 276.241 128.1 280.281 127.67 284.361C127.43 286.621 127.49 288.911 127.42 291.181C127.42 291.571 127.41 291.951 127.41 292.341C126.84 293.581 125.97 294.781 125.74 296.081C124.69 302.281 123.71 308.501 122.92 314.741C122.43 318.561 122.32 322.431 122.04 326.281C122.08 326.691 122.12 327.101 122.16 327.511C121.61 327.741 121.05 327.971 120.5 328.201C120.05 326.211 119.6 324.221 119.15 322.221C118.8 322.311 118.44 322.401 118.09 322.491C118.21 323.601 118.33 324.711 118.46 325.991C115.16 327.041 112.15 325.211 108.75 325.971C103.66 327.111 98.1202 326.231 92.7702 326.301C91.0802 326.321 90.5601 325.681 90.5401 324.041C90.4101 316.491 90.0102 308.931 90.0302 301.381C90.0502 291.601 90.4902 281.821 90.5302 272.031C90.5602 265.721 90.1102 259.401 90.0302 253.091C90.0002 250.641 90.4802 248.191 90.5502 245.731C90.6402 242.501 90.0202 241.981 86.4902 241.871L86.3402 241.711C86.1002 241.151 85.8802 240.571 85.6602 240.001Z" fill="#EF3D38"/>
<path d="M168.61 19.9906C168.61 49.5206 168.61 79.0406 168.59 108.571C168.59 110.941 168.48 113.311 168.42 115.671C168.22 116.691 168.02 117.701 167.82 118.721C166.48 118.861 165.15 119.001 163.81 119.131C164.27 117.551 164.42 116.211 162.12 116.121C160.37 116.051 158.62 115.641 156.87 115.661C152.36 115.711 147.85 115.981 143.34 116.031C140.9 116.051 138.44 115.641 136.01 115.721C135.12 115.751 134.26 116.631 133.14 117.251C135.23 118.031 136.66 118.561 138.09 119.091C127.26 119.241 116.43 119.461 105.6 119.511C100.39 119.531 95.1802 119.231 89.9702 119.081C89.9602 118.131 89.9602 117.181 89.9502 116.231C90.3302 116.181 90.7102 116.131 91.0902 116.081C93.8002 116.121 96.5102 116.201 99.2202 116.211C108.98 116.231 118.73 116.301 128.49 116.141C129.92 116.121 132.19 115.271 132.57 114.241C133.51 111.731 133.95 108.881 133.9 106.181C133.81 101.681 133.22 97.1806 132.71 92.7006C132.61 91.7906 131.95 90.9506 131.55 90.0706C131.54 89.2906 131.53 88.5106 131.53 87.7406C131.16 80.3106 130.85 72.8806 130.38 65.4606C130.29 63.9506 129.44 62.4906 129.27 60.9706C128.92 57.9406 128.97 54.8606 128.53 51.8506C128.24 49.8706 127.37 47.9806 126.76 46.0506C126.75 45.6606 126.74 45.2606 126.74 44.8706C127.07 41.9506 126.38 39.3406 124.38 37.1306C124.37 36.3506 124.37 35.5806 124.36 34.8006C124.2 32.1506 124.06 29.5006 123.85 26.8506C123.8 26.1806 123.59 25.5006 123.37 24.8606C121.59 19.7906 119.71 14.7606 118.09 9.64062C117.85 8.88063 118.68 6.98062 119.14 6.93062C121.94 6.66062 124.77 6.71061 127.59 6.77061C134.45 6.92061 141.32 7.18063 148.18 7.33063C151.95 7.41063 155.72 7.20063 159.47 7.44063C160.54 7.51063 162.43 8.72063 162.41 9.36063C162.23 14.9306 163.68 20.6706 160.44 25.9906C159.57 27.4106 159.6 30.0006 160.28 31.6106C161.6 34.7306 161.38 37.7106 161.09 40.8806C160.94 42.5106 161.12 44.5706 162.01 45.8206C163.45 47.8306 163.9 49.8106 163.78 52.1606C163.66 54.4306 163.75 56.7206 163.75 59.0006C163.75 60.8806 164 62.8206 161.59 63.6606C161.18 63.8006 160.86 64.8106 160.87 65.4106C160.98 68.9506 161.25 72.4906 161.36 76.0406C161.47 79.5106 161.46 82.9706 161.47 86.4406C161.48 93.7106 163.32 100.881 162.12 108.261C161.64 111.231 159.31 112.071 157.82 112.301C154.22 112.871 150.45 112.301 146.76 112.291C145.97 112.291 145.13 112.611 144.42 112.991C144.2 113.111 144.16 114.231 144.31 114.301C145.05 114.641 145.89 114.981 146.68 114.961C151.37 114.841 156.05 114.501 160.74 114.511C162.55 114.511 164.36 115.211 166.17 115.601C166.73 114.251 167.28 112.901 167.84 111.551C167.84 111.321 167.84 111.081 167.84 110.851C167.84 110.651 167.78 110.461 167.66 110.301C167.66 110.131 167.65 109.961 167.62 109.801C167.62 108.751 167.61 107.691 167.61 106.641C167.66 105.461 167.76 104.271 167.76 103.091C167.77 90.6206 167.82 78.1606 167.76 65.6906C167.66 47.4106 167.44 29.1306 167.37 10.8506C167.36 9.28062 168.12 7.71063 168.53 6.14062C168.56 9.67062 168.59 13.2006 168.63 16.7406C168.62 17.8106 168.61 18.9006 168.61 19.9906ZM158.4 31.7406C158.4 30.8306 158.4 30.3306 158.4 29.8406C158.4 22.8406 158.4 22.8406 151.02 22.8406C150.52 22.8406 150.03 22.8106 149.53 22.8506C147.38 23.0106 145.22 23.3206 143.07 23.3106C140.62 23.3006 138.16 22.8406 135.71 22.8906C132.48 22.9606 130.92 26.2406 132.66 28.9506C132.97 29.4306 133.29 29.9706 133.38 30.5206C134.41 37.0706 135.38 43.6306 136.38 50.1806C137.87 59.9206 137.04 69.8506 140.24 79.5206C142.18 85.3806 141.87 92.0206 142.25 98.3306C142.41 100.931 143.52 102.051 145.85 101.901C148.59 101.721 151.44 101.571 153.97 100.651C155.32 100.161 156.91 98.1406 156.98 96.7306C157.32 90.2006 157.07 83.6506 157.21 77.1106C157.55 61.8506 158 46.5806 158.4 31.7406Z" fill="#EF5E63"/>
<path d="M168.46 124.941C168.42 125.231 168.39 125.511 168.35 125.801C167.98 126.601 167.62 127.391 167.25 128.191C166.06 128.521 164.87 128.861 164.13 129.071C164.79 130.981 165.25 132.331 165.71 133.671C165.65 134.011 165.59 134.361 165.53 134.701C164.61 134.941 163.69 135.171 162.28 135.541C165.18 139.361 163.54 142.251 161.55 145.561C159.69 148.671 158.61 152.431 162.72 155.251C163.16 155.551 163.13 156.711 163.13 157.471C163.16 162.081 163.15 166.691 163.15 171.301C163.15 190.441 163.16 209.571 163.16 228.711C154.78 228.721 146.4 228.691 138.02 228.761C136.08 228.781 134.14 229.111 132.19 229.301C132.53 227.971 133.14 226.641 133.17 225.301C133.33 217.721 133.34 210.141 133.41 202.561C133.42 201.671 133.45 200.781 133.47 199.891C133.63 189.621 133.87 179.351 133.94 169.081C134.02 156.851 133.9 144.621 134.01 132.401C134.04 129.461 133.43 128.361 130.49 128.211C129.01 128.141 127.52 128.201 126.04 128.201C114.4 128.221 102.76 128.231 91.1299 128.251C90.7499 128.221 90.3599 128.191 89.9799 128.161C89.5599 128.021 89.1499 127.881 88.7299 127.741C88.5499 127.681 88.3699 127.621 88.1899 127.581C88.2199 127.011 88.2499 126.441 88.2799 125.871C89.3399 125.691 90.3899 125.371 91.4499 125.361C98.0899 125.301 104.73 125.291 111.36 125.321C118.88 125.351 126.4 125.441 133.92 125.511C132.83 128.281 134.89 128.191 136.51 128.211C144.29 128.271 152.08 128.311 159.86 128.221C161.71 128.201 163.55 127.641 165.97 127.231C164.42 126.451 163.53 126.011 162.65 125.561C164.58 125.331 166.52 125.131 168.46 124.941ZM158.41 142.721C158.44 138.471 157.36 137.531 152.34 138.171C150.29 138.431 148.23 138.771 146.17 138.811C143.72 138.861 142.91 140.041 142.89 142.351C142.74 160.371 142.47 178.381 142.37 196.401C142.34 201.631 142.78 206.861 142.88 212.091C142.91 213.951 142.23 215.851 142.48 217.651C142.61 218.601 144.06 220.121 144.89 220.101C148.95 220.021 151.74 216.861 151.85 212.731C151.89 211.251 151.87 209.761 152.01 208.281C152.93 199.061 153.7 189.811 154.89 180.631C155.56 175.451 154.92 170.291 156.23 165.001C157.94 158.121 157.72 150.751 158.41 142.721Z" fill="#EF5E63"/>
<path d="M92.4001 374.131C92.7301 373.821 93.0601 373.511 93.3901 373.201C93.6201 373.001 93.8501 372.811 94.0701 372.611L94.0601 372.621C95.5501 371.911 96.9801 371.041 98.5301 370.531C105.19 368.331 112.03 367.991 118.94 368.971C122.82 369.521 123.93 368.621 123.86 364.611C123.69 354.751 123.45 344.891 123.41 335.031C123.41 333.921 124.47 331.871 125.08 331.851C127.19 331.811 129.31 332.471 131.42 332.861C131.4 334.031 131.37 335.211 131.35 336.381C131.06 337.241 130.54 338.091 130.53 338.951C130.45 347.751 130.45 356.561 130.44 365.361C130.44 368.121 131.67 369.221 134.48 369.061C137.53 368.881 140.58 368.681 143.63 368.571C152.46 368.261 159.91 370.881 165.14 378.491C165.77 379.401 167.12 380.181 168.24 380.331C171.26 380.751 174.34 380.701 177.37 381.011C184.47 381.741 191.79 381.371 198.28 385.171L198.27 385.161C198.46 385.371 198.64 385.581 198.83 385.791L198.84 385.801C199.02 386.351 199.17 386.931 199.4 387.461C200.49 390.041 200.01 391.021 197.31 391.161C184.98 391.781 172.65 392.781 160.32 392.821C130.91 392.911 101.5 392.571 72.1001 392.281C66.9801 392.231 61.8701 391.601 56.7601 391.141C54.4601 390.931 53.7301 389.341 55.0101 387.381C55.8101 386.161 56.8701 385.111 57.8201 383.991L57.8301 383.981C60.1001 383.391 62.3401 382.511 64.6501 382.271C71.7801 381.521 78.9401 381.111 86.0701 380.321C87.4601 380.171 88.9501 379.121 90.0001 378.081C91.0501 377.021 91.6101 375.471 92.4001 374.131ZM136.9 383.551C136.98 383.231 137.07 382.921 137.15 382.601C137.69 382.471 138.22 382.321 138.77 382.221C143.12 381.451 147.5 380.831 151.79 379.811C152.77 379.581 153.96 378.041 154.07 377.011C154.15 376.221 152.8 374.761 151.84 374.491C148.82 373.661 145.71 372.981 142.6 372.761C138.46 372.471 134.27 372.521 130.12 372.751C128.13 372.861 126.08 373.521 124.25 374.361C122.05 375.361 121.88 378.121 124.05 379.201C126.08 380.201 128.47 380.531 130.73 380.981C132.4 381.311 134.31 381.111 134.43 383.971C114.11 384.081 93.9301 383.351 73.9601 387.251C74.9801 388.061 76.0401 388.551 77.1301 388.651C82.5301 389.131 87.9301 389.841 93.3401 389.861C122.43 389.971 151.53 390.521 180.6 388.731C183.31 388.561 186 388.091 188.7 387.761C188.68 387.401 188.67 387.041 188.65 386.681C187.08 386.531 185.5 386.381 183.93 386.241C175.89 385.521 167.87 384.511 159.81 384.171C153.26 383.891 146.68 384.461 140.11 384.521C139.05 384.531 137.97 383.891 136.9 383.551Z" fill="#221718"/>
<path d="M90.7801 239.011C89.0901 239.081 87.4101 239.161 85.7201 239.231C85.6901 238.291 85.6701 237.341 85.6401 236.411C85.6501 235.861 85.6701 235.301 85.6801 234.751C85.7501 233.941 85.8101 233.121 85.8801 232.311C86.0501 232.151 86.2201 231.981 86.3901 231.821C87.0801 231.861 87.7701 231.901 88.4601 231.941C88.7101 231.931 88.9601 231.921 89.2101 231.911L89.2601 231.831C90.2101 232.131 91.1501 232.681 92.1001 232.691C104.38 232.811 116.67 232.871 128.95 232.891C130.96 232.891 132.97 232.641 134.99 232.511C137.85 232.561 140.72 232.661 143.58 232.641C150.1 232.591 156.61 232.471 163.13 232.381C163.95 232.271 164.77 232.151 165.59 232.041C166.32 231.951 167.06 231.871 167.79 231.781L168.02 231.801L168.17 231.621C168.32 232.651 168.48 233.681 168.64 234.691C168.64 235.251 168.63 235.821 168.63 236.391C168.58 237.041 168.54 237.701 168.49 238.351C168.11 238.801 167.73 239.261 167.35 239.721C165.36 239.501 163.38 239.291 161.39 239.071C160.81 239.031 160.23 238.991 159.66 238.951C151.58 238.891 143.5 238.831 135.41 238.801C135.08 238.801 134.75 239.151 134.42 239.331C133.52 239.351 132.62 239.371 131.72 239.401C131.35 239.371 130.98 239.351 130.61 239.321C130.32 239.201 130.04 239.081 129.75 238.951C121.08 238.941 112.41 238.941 103.74 238.931C102.3 238.931 100.86 238.931 99.4201 238.931C99.0801 238.931 98.7301 238.931 98.3901 238.931C97.7401 238.931 97.0901 238.931 96.4401 238.931C96.1001 238.931 95.7601 238.941 95.4201 238.941C94.5701 238.941 93.7201 238.951 92.8701 238.951C92.1601 238.981 91.4701 239.001 90.7801 239.011Z" fill="#221718"/>
<path d="M168.46 124.941C166.52 125.131 164.59 125.331 162.65 125.521C153.07 125.511 143.5 125.491 133.92 125.481C126.4 125.421 118.88 125.331 111.36 125.291C104.72 125.261 98.0799 125.281 91.4499 125.331C90.3899 125.341 89.3399 125.661 88.2799 125.841C87.7499 125.961 87.2099 126.091 86.6799 126.211C86.4099 126.031 86.1399 125.861 85.8699 125.681C85.7999 124.691 85.7299 123.711 85.6499 122.731C85.6699 122.201 85.6799 121.661 85.6999 121.111C85.7599 120.421 85.8199 119.741 85.8799 119.051L86.0499 119.131L86.2399 119.091C86.9099 119.061 87.5699 119.041 88.2399 119.011C88.8199 119.031 89.3899 119.061 89.9699 119.081C95.1799 119.231 100.39 119.531 105.6 119.511C116.43 119.461 127.26 119.241 138.09 119.091C138.73 119.091 139.38 119.081 140.02 119.081C143.55 119.081 147.08 119.081 150.61 119.081C151.44 119.081 152.27 119.081 153.1 119.081C154.25 119.081 155.41 119.071 156.56 119.071C158.98 119.091 161.4 119.111 163.83 119.131C165.17 118.991 166.5 118.851 167.84 118.721C168.03 119.011 168.23 119.301 168.42 119.591C168.49 120.281 168.56 120.981 168.63 121.661C168.63 122.021 168.63 122.391 168.64 122.761C168.56 123.491 168.51 124.211 168.46 124.941Z" fill="#221718"/>
<path d="M89.97 128.141C90.35 128.171 90.74 128.201 91.12 128.231C92.15 129.851 92.49 131.391 90.97 132.991C90.58 133.411 90.6 134.291 90.57 134.961C90.35 141.381 90.01 147.811 89.99 154.231C89.92 176.541 89.96 198.851 89.97 221.151C89.97 222.231 90.02 223.331 90.23 224.391C90.96 228.041 90.34 229.001 86.49 229.861C86.39 229.711 86.32 229.541 86.28 229.361C86.18 228.931 86.07 228.511 85.97 228.081C85.97 227.511 85.97 226.951 85.97 226.381C86.1 225.521 86.35 224.651 86.35 223.791C86.37 196.591 86.38 169.391 86.35 142.201C86.35 141.281 85.97 140.361 85.77 139.441C85.79 138.461 85.81 137.481 85.83 136.501C85.96 133.881 86.09 131.271 86.22 128.651C86.43 128.261 86.64 127.871 86.85 127.491C87.29 127.511 87.73 127.531 88.17 127.561C88.35 127.601 88.53 127.661 88.71 127.721C89.14 127.861 89.55 128.001 89.97 128.141Z" fill="#EC2727"/>
<path d="M86.2299 119.091L86.0399 119.131C86.0399 119.131 85.8699 119.061 85.8699 119.051C85.5599 117.331 84.9899 115.601 84.9899 113.881C84.9299 77.5307 84.9499 41.1807 84.9399 4.83072C84.9399 0.870719 85.84 -0.0292829 89.84 0.000717107C115.08 0.170717 140.33 0.340717 165.57 0.500717C168.78 0.520717 169.77 2.19072 168.63 5.67072C168.68 3.11072 167.39 2.17071 164.94 2.54071C164.17 2.66071 163.38 2.65071 162.6 2.70071C150.95 2.66071 139.3 2.58072 127.65 2.61072C124.82 2.62072 121.99 3.02071 119.16 3.24071C117.76 3.22071 116.36 3.19072 114.97 3.17072C111.3 2.78072 107.63 2.21071 103.95 2.04071C99.1199 1.82071 94.27 1.94071 89.44 1.85071C86.06 1.79071 85.7899 2.03072 85.9599 5.55072C85.9299 9.80072 85.8599 14.0507 85.8599 18.3007C85.8799 46.9807 85.9099 75.6607 85.9299 104.341C86.1199 108.301 86.3099 112.251 86.5099 116.211C86.4899 116.721 86.4699 117.241 86.4499 117.751C86.3799 118.201 86.3099 118.651 86.2299 119.091Z" fill="#F37C83"/>
<path d="M57.8201 383.981C56.8701 385.111 55.8101 386.151 55.0101 387.371C53.7301 389.331 54.4601 390.921 56.7601 391.131C61.8701 391.591 66.9801 392.221 72.1001 392.271C101.51 392.561 130.92 392.891 160.32 392.811C172.65 392.771 184.98 391.771 197.31 391.151C200 391.021 200.49 390.031 199.4 387.451C199.17 386.911 199.03 386.341 198.84 385.791C199.22 386.231 199.67 386.621 199.97 387.111C201.94 390.341 201.24 391.791 197.44 392.111C191.73 392.591 186 393.341 180.29 393.341C143.17 393.341 106.05 393.191 68.9301 393.021C65.3801 393.001 61.8201 392.631 58.3001 392.141C56.6801 391.911 55.1501 391.001 53.5801 390.401C54.1901 388.811 54.6501 387.131 55.4901 385.661C55.9201 384.911 57.0201 384.531 57.8201 383.981Z" fill="#5D343F"/>
<path d="M162.59 2.71066C163.37 2.66066 164.16 2.66067 164.93 2.55067C167.38 2.18067 168.68 3.12066 168.62 5.68066C168.63 5.84066 168.59 5.99066 168.51 6.13066C168.11 7.70066 167.35 9.27066 167.35 10.8407C167.42 29.1207 167.64 47.4007 167.74 65.6807C167.81 78.1507 167.76 90.6107 167.74 103.081C167.74 104.261 167.64 105.451 167.59 106.631C167.1 106.661 166.6 106.691 166.11 106.731C166.09 79.3707 166.08 52.0107 166.06 24.6507C166.06 24.2307 166.06 23.8107 166.05 23.3907C166.05 22.6207 166.05 21.8607 166.04 21.0907C166.03 19.6707 166.02 18.2507 166.01 16.8307C166.01 16.4707 166.01 16.1107 166.01 15.7507C166.01 15.1207 166.01 14.4807 166.02 13.8507C166.02 12.1007 166.02 10.3507 166.02 8.60066C165.83 6.65066 165.94 4.54067 163.18 4.19067C162.94 4.16067 162.79 3.23066 162.59 2.71066Z" fill="#EC2727"/>
<path d="M198.28 385.161C191.79 381.361 184.46 381.731 177.37 381.001C174.33 380.691 171.26 380.741 168.24 380.321C167.13 380.171 165.77 379.391 165.14 378.481C159.91 370.881 152.45 368.251 143.63 368.561C140.58 368.671 137.53 368.871 134.48 369.051C131.68 369.211 130.44 368.111 130.44 365.351C130.45 356.551 130.45 347.741 130.53 338.941C130.54 338.081 131.06 337.231 131.35 336.371C131.43 337.441 131.57 338.501 131.58 339.571C131.67 347.111 131.73 354.651 131.8 362.191C131.58 363.031 131.35 363.871 131.13 364.711C131.26 365.381 131.39 366.051 131.52 366.721C132.77 367.181 134.01 367.991 135.28 368.031C139.14 368.151 143.01 367.961 146.87 367.901C154.24 367.781 160.14 370.781 164.51 376.621C166.16 378.821 167.95 379.601 170.72 379.741C177.92 380.121 185.13 380.801 192.27 381.831C194.38 382.141 196.28 384.011 198.28 385.161Z" fill="#5D343F"/>
<path d="M131.42 332.861C129.3 332.471 127.18 331.811 125.08 331.851C124.48 331.861 123.41 333.911 123.41 335.031C123.45 344.891 123.69 354.751 123.86 364.611C123.93 368.621 122.82 369.521 118.94 368.971C112.03 367.991 105.19 368.331 98.5301 370.531C96.9801 371.041 95.5501 371.911 94.0601 372.621C97.2901 369.281 101.51 368.211 105.88 367.981C110.22 367.751 114.59 368.041 118.95 368.141C122.02 368.221 122.85 367.151 122.75 364.081C122.57 358.541 122.66 352.981 122.61 347.431C122.56 342.181 122.49 336.921 122.42 331.671C122.58 331.381 122.74 331.081 122.9 330.791C125.8 330.881 128.7 330.971 131.6 331.051C131.54 331.661 131.48 332.261 131.42 332.861Z" fill="#5D343F"/>
<path d="M131.42 332.861C131.48 332.261 131.54 331.661 131.6 331.061C132.8 330.461 134 329.871 135.19 329.271C135.56 329.291 135.93 329.321 136.3 329.341C136.72 329.501 137.14 329.661 137.57 329.831C139.36 329.831 141.14 329.841 142.93 329.841C144.55 329.681 146.17 329.531 147.78 329.371C150.13 329.491 152.48 329.611 154.84 329.731C157.05 329.871 159.26 330.021 161.47 330.161C162.84 330.021 164.2 329.881 165.57 329.741C167.04 330.151 167.87 329.641 167.96 328.071C168.15 328.051 168.34 328.041 168.53 328.041C169.06 331.061 168.43 331.921 165.9 331.871C157.5 331.691 149.1 331.531 140.7 331.361C139.32 331.331 137.92 331.411 136.55 331.241C133.13 330.821 132.39 331.401 132.38 334.971C132.36 343.191 132.41 351.401 132.38 359.621C132.38 360.481 132.01 361.341 131.81 362.191C131.74 354.651 131.68 347.111 131.59 339.571C131.58 338.501 131.44 337.441 131.36 336.371C131.37 335.211 131.4 334.031 131.42 332.861Z" fill="#F37C83"/>
<path d="M122.89 330.801C122.73 331.091 122.57 331.391 122.41 331.681C120.3 331.621 118.19 331.491 116.08 331.511C106.99 331.611 97.8903 331.691 88.8003 331.931C86.0803 332.001 84.8503 330.791 84.9203 328.291C85.0003 325.191 85.3403 322.091 85.5703 319.001C85.7103 319.451 85.8403 319.891 85.9803 320.341C85.9703 321.121 85.9703 321.901 85.9603 322.681C85.9603 322.901 85.9503 323.111 85.9503 323.331C86.0503 325.791 86.1603 328.261 86.2703 330.951C88.2003 330.531 89.3303 330.281 90.4603 330.041C91.3103 330.041 92.1603 330.031 93.0103 330.031C93.7503 330.031 94.4803 330.031 95.2203 330.031C102.22 330.021 109.22 330.021 116.22 330.011C116.7 330.071 117.19 330.121 117.67 330.181C117.96 330.091 118.24 330.001 118.53 329.911C119.16 329.341 119.79 328.771 120.42 328.191H120.48C121.03 327.961 121.59 327.731 122.14 327.501C124.37 327.191 126.6 326.871 128.83 326.561C128.89 326.931 128.96 327.291 129.02 327.661C128.01 329.081 126.67 329.501 124.87 328.891C123.14 328.311 122.46 329.021 122.89 330.801Z" fill="#F37C83"/>
<path d="M168.64 137.811C168.64 167.321 168.64 196.841 168.62 226.351C168.62 227.531 168.43 228.711 168.34 229.881C168.17 229.811 168 229.771 167.83 229.751C167.77 229.531 167.71 229.311 167.66 229.101C167.72 228.221 167.82 227.331 167.82 226.451C167.82 198.571 167.8 170.691 167.81 142.801C167.81 140.441 168.04 138.081 168.17 135.731C168.32 136.421 168.48 137.111 168.64 137.811Z" fill="#EF5E63"/>
<path d="M92.4003 374.131C91.6203 375.471 91.0503 377.021 89.9903 378.071C88.9503 379.111 87.4603 380.161 86.0603 380.311C78.9403 381.101 71.7703 381.511 64.6403 382.261C62.3303 382.501 60.0903 383.381 57.8203 383.971C59.1503 383.221 60.4203 381.971 61.8103 381.801C69.1203 380.931 76.4503 380.111 83.8003 379.741C86.6003 379.601 88.4303 378.761 89.9403 376.551C90.5803 375.621 91.5703 374.931 92.4003 374.131Z" fill="#5D343F"/>
<path d="M85.78 139.441C85.98 140.361 86.36 141.281 86.36 142.201C86.39 169.401 86.39 196.601 86.36 223.791C86.36 224.651 86.11 225.521 85.98 226.381C85.92 224.311 85.85 222.231 85.82 220.161C85.72 213.441 85.64 206.721 85.55 200.001C85.56 198.701 85.57 197.401 85.58 196.111C85.58 187.691 85.58 179.281 85.58 170.861C85.57 169.761 85.56 168.661 85.55 167.561C85.55 163.101 85.55 158.641 85.55 154.181C85.55 153.881 85.55 153.591 85.56 153.291C85.56 151.211 85.57 149.121 85.57 147.041C85.57 145.351 85.56 143.661 85.56 141.971C85.56 141.291 85.56 140.601 85.56 139.921C85.51 139.711 85.58 139.541 85.78 139.441Z" fill="#ED484C"/>
<path d="M168.53 328.051C168.34 328.051 168.15 328.061 167.96 328.081C167.94 327.291 167.92 326.501 167.91 325.701C167.88 297.951 167.85 270.201 167.83 242.451C168.06 242.431 168.29 242.411 168.52 242.391C168.55 244.861 168.61 247.341 168.61 249.811C168.63 274.601 168.64 299.391 168.65 324.181C168.64 325.481 168.57 326.771 168.53 328.051Z" fill="#EF5E63"/>
<path d="M85.9901 320.341C85.8501 319.891 85.72 319.451 85.58 319.001C85.59 318.501 85.6 317.991 85.61 317.491C85.6 313.631 85.5901 309.761 85.5901 305.901C85.5901 305.601 85.6001 305.311 85.6001 305.011C85.6001 300.551 85.5901 296.091 85.5901 291.631C85.5801 291.341 85.5701 291.051 85.5701 290.761C85.5701 289.061 85.5701 287.351 85.5601 285.651C85.5601 278.031 85.5601 270.411 85.5601 262.791C85.5701 257.131 85.57 251.471 85.58 245.801C85.63 244.661 85.68 243.531 85.73 242.391C85.94 242.401 86.1501 242.411 86.3501 242.411C86.3601 267.531 86.3801 292.641 86.3701 317.761C86.3801 318.621 86.1301 319.481 85.9901 320.341Z" fill="#ED484C"/>
<path d="M85.5499 200.001C85.6399 206.721 85.7199 213.441 85.8199 220.161C85.8499 222.231 85.9299 224.311 85.9799 226.381C85.9799 226.951 85.9799 227.511 85.9799 228.081C86.0799 228.511 86.1899 228.931 86.2899 229.361C86.3299 229.541 86.3999 229.711 86.4999 229.861C86.4599 230.511 86.4299 231.171 86.3899 231.821C86.2199 231.981 86.0499 232.151 85.8799 232.311C85.6499 229.801 85.2599 227.291 85.2299 224.781C85.1399 217.581 85.1899 210.391 85.2199 203.191C85.2299 202.121 85.4399 201.061 85.5499 200.001Z" fill="#F37C83"/>
<path d="M165.72 133.661C165.26 132.321 164.8 130.981 164.14 129.061C164.88 128.851 166.07 128.521 167.26 128.181C167.67 128.381 168.07 128.581 168.48 128.781C168.45 129.161 168.42 129.531 168.39 129.911C168.2 130.261 168.01 130.601 167.82 130.951C167.83 131.621 167.85 132.291 167.86 132.961C167.78 133.211 167.7 133.461 167.63 133.701C166.99 133.691 166.36 133.671 165.72 133.661Z" fill="#ED484C"/>
<path d="M85.58 245.801C85.57 251.461 85.57 257.131 85.56 262.791C85.45 260.811 85.22 258.821 85.24 256.841C85.28 253.161 85.46 249.481 85.58 245.801Z" fill="#F37C83"/>
<path d="M86.8599 127.481C86.6499 127.871 86.4399 128.261 86.2299 128.641C86.0199 131.091 85.8099 133.541 85.6099 135.991C85.6999 132.551 85.7799 129.111 85.8699 125.671C86.1399 125.851 86.4099 126.021 86.6799 126.201C86.7399 126.631 86.7999 127.061 86.8599 127.481Z" fill="#F37C83"/>
<path d="M85.5898 291.631C85.5898 296.091 85.5998 300.551 85.5998 305.011C85.5998 300.551 85.5898 296.091 85.5898 291.631Z" fill="#F37C83"/>
<path d="M85.5898 305.901C85.5998 309.761 85.6098 313.631 85.6098 317.491C85.6098 313.631 85.5998 309.761 85.5898 305.901Z" fill="#F37C83"/>
<path d="M168.52 242.401C168.29 242.421 168.06 242.441 167.84 242.461C167.66 242.251 167.47 242.051 167.29 241.841C167.31 241.131 167.33 240.431 167.35 239.721C167.73 239.261 168.11 238.811 168.49 238.351C168.5 239.711 168.51 241.051 168.52 242.401Z" fill="#F37C83"/>
<path d="M85.5601 285.651C85.5601 287.361 85.5601 289.061 85.5701 290.761C85.5601 289.061 85.5601 287.351 85.5601 285.651Z" fill="#F37C83"/>
<path d="M168.4 119.591C168.21 119.301 168.02 119.011 167.82 118.721C168.02 117.701 168.22 116.691 168.42 115.671C168.41 116.981 168.41 118.291 168.4 119.591Z" fill="#F37C83"/>
<path d="M85.6102 136.001C85.8202 133.551 86.0302 131.101 86.2302 128.651C86.1002 131.271 85.9702 133.881 85.8402 136.501C85.6402 136.391 85.5602 136.231 85.6102 136.001Z" fill="#ED484C"/>
<path d="M168.48 128.781C168.07 128.581 167.67 128.381 167.26 128.181C167.62 127.381 167.99 126.591 168.36 125.791C168.39 126.791 168.43 127.791 168.48 128.781Z" fill="#F37C83"/>
<path d="M85.5701 147.041C85.5701 149.121 85.5601 151.211 85.5601 153.291C85.5601 151.201 85.5601 149.121 85.5701 147.041Z" fill="#F37C83"/>
<path d="M168.64 137.811C168.48 137.121 168.32 136.421 168.16 135.731C168.12 135.391 168.07 135.051 168.02 134.711C168.22 134.691 168.41 134.681 168.61 134.671C168.62 135.711 168.63 136.761 168.64 137.811Z" fill="#F37C83"/>
<path d="M168.61 19.9907C168.61 18.9007 168.62 17.8107 168.62 16.7307C168.62 17.8107 168.61 18.9007 168.61 19.9907Z" fill="#F37C83"/>
<path d="M167.86 132.961C167.85 132.291 167.83 131.621 167.82 130.951C168.01 131.011 168.2 131.061 168.39 131.101C168.39 131.711 168.39 132.321 168.39 132.931C168.21 132.951 168.04 132.961 167.86 132.961Z" fill="#F37C83"/>
<path d="M131.51 366.731C131.38 366.061 131.25 365.391 131.12 364.721C131.26 365.391 131.39 366.061 131.51 366.731Z" fill="#F37C83"/>
<path d="M85.6602 240.001C85.8802 240.571 86.1102 241.141 86.3302 241.721C86.1102 241.751 85.9002 241.781 85.6802 241.801C85.6702 241.201 85.6702 240.601 85.6602 240.001Z" fill="#F37C83"/>
<path d="M168.62 236.401C168.62 235.831 168.63 235.261 168.63 234.701C168.63 235.271 168.63 235.831 168.62 236.401Z" fill="#F37C83"/>
<path d="M85.6801 234.751C85.6701 235.311 85.6501 235.871 85.6401 236.411C85.6601 235.851 85.6701 235.301 85.6801 234.751Z" fill="#F37C83"/>
<path d="M85.6999 121.111C85.6799 121.651 85.6599 122.191 85.6499 122.731C85.6599 122.191 85.6799 121.651 85.6999 121.111Z" fill="#F37C83"/>
<path d="M168.62 122.761C168.62 122.391 168.62 122.021 168.61 121.661C168.61 122.031 168.61 122.401 168.62 122.761Z" fill="#F37C83"/>
<path d="M167.82 229.761C168 229.781 168.17 229.821 168.33 229.891C168.27 230.471 168.22 231.051 168.17 231.631L168.03 231.811L167.8 231.791C167.8 231.101 167.81 230.431 167.82 229.761Z" fill="#F37C83"/>
<path d="M85.5503 139.921C85.5503 140.601 85.5503 141.291 85.5503 141.971C85.5603 141.291 85.5603 140.611 85.5503 139.921Z" fill="#F37C83"/>
<path d="M167.86 132.961C168.03 132.961 168.21 132.951 168.38 132.931C168.46 133.511 168.53 134.091 168.61 134.671C168.41 134.681 168.22 134.691 168.02 134.711C167.89 134.381 167.76 134.041 167.62 133.711C167.71 133.451 167.78 133.211 167.86 132.961Z" fill="#EF5E63"/>
<path d="M168.38 131.101C168.19 131.061 168 131.011 167.81 130.951C168 130.601 168.19 130.261 168.38 129.911C168.39 130.311 168.39 130.701 168.38 131.101Z" fill="#EF5E63"/>
<path d="M85.6802 241.801C85.9002 241.771 86.1102 241.741 86.3302 241.721L86.4802 241.881C86.4302 242.061 86.3902 242.241 86.3602 242.421C86.1502 242.411 85.9402 242.401 85.7402 242.401C85.7202 242.201 85.7002 242.001 85.6802 241.801Z" fill="#EF3D38"/>
<path d="M94.0702 372.611C93.8402 372.811 93.6101 373.001 93.3901 373.201C93.6101 373.011 93.8402 372.811 94.0702 372.611Z" fill="#5D343F"/>
<path d="M198.84 385.791C198.65 385.581 198.47 385.371 198.28 385.161C198.46 385.371 198.65 385.581 198.84 385.791Z" fill="#5D343F"/>
<path d="M122.89 330.801C122.45 329.021 123.14 328.311 124.87 328.901C126.68 329.511 128.01 329.091 129.02 327.671C128.96 327.301 128.89 326.941 128.83 326.571C126.6 326.881 124.37 327.201 122.14 327.511C122.1 327.101 122.06 326.691 122.02 326.281C122.64 325.661 123.49 325.151 123.84 324.401C124.5 322.981 125.24 321.441 125.3 319.921C125.44 316.671 124.14 312.981 125.28 310.231C127.72 304.321 127.11 298.331 127.39 292.331C127.39 291.941 127.4 291.561 127.4 291.171C128.23 288.791 128.79 286.261 129.95 284.061C132.19 279.801 131.8 275.461 131.39 270.931C131.07 267.371 130.53 263.291 131.88 260.241C133.65 256.241 131.87 253.061 131.55 249.521C131.55 248.531 131.55 247.531 131.56 246.541C132.18 245.171 133.93 243.801 131.55 242.441C127.45 242.411 123.36 242.401 119.26 242.331C111.49 242.191 103.72 241.941 95.95 241.891C93.56 241.881 91.07 243.011 89 240.681C89.58 240.131 90.17 239.571 90.76 239.001C91.45 238.991 92.14 238.971 92.83 238.961C93.68 238.961 94.53 238.951 95.38 238.951C95.72 238.951 96.06 238.941 96.41 238.941C97.06 238.941 97.71 238.941 98.36 238.941C98.7 238.941 99.05 238.941 99.39 238.941C100.83 238.941 102.27 238.941 103.71 238.941C112.38 238.951 121.05 238.951 129.72 238.961C130.01 239.081 130.29 239.201 130.58 239.331C130.95 239.361 131.32 239.381 131.69 239.411C131.25 241.951 133.03 241.841 134.64 241.851C144.56 241.901 154.48 241.931 164.39 241.971C162.31 243.531 161.85 245.131 163.85 247.231C164.39 247.801 164.29 249.101 164.28 250.061C164.12 262.311 163.88 274.561 163.73 286.811C163.66 292.351 163.65 297.901 163.75 303.441C163.85 308.961 164.26 314.481 164.26 320.001C164.26 325.661 162.4 326.961 156.99 325.961C154.88 325.571 152.66 325.771 150.5 325.711C148.57 325.661 146.64 325.531 144.71 325.601C140.6 325.761 136.49 326.031 132.38 326.251C132.33 326.561 132.28 326.871 132.23 327.181C133.21 327.871 134.18 328.571 135.16 329.261C133.96 329.861 132.76 330.451 131.57 331.051C128.7 330.981 125.79 330.891 122.89 330.801ZM148.38 323.891C153.93 324.511 154.29 324.231 154.2 318.921C154.08 312.501 153.81 306.091 153.62 299.671C153.41 292.661 153.23 285.651 153 278.641C152.97 277.871 152.65 277.111 152.54 276.341C152.1 273.271 151.58 270.211 151.31 267.131C151.11 264.921 151.26 262.671 151.25 260.441C151.24 258.411 151.31 256.381 151.2 254.351C151.1 252.391 151.11 250.351 150.54 248.511C149.7 245.791 147.19 244.841 144.67 244.901C142.14 244.961 142.97 247.571 142.39 249.081C142.16 249.691 142.46 250.481 142.31 251.141C141.58 254.421 142.59 258.151 139.75 260.901C139.45 261.191 139.42 261.811 139.37 262.291C138.95 266.971 138.72 271.681 138.12 276.341C137.41 281.871 136.39 287.361 135.54 292.871C135.43 293.611 135.7 294.411 135.59 295.151C135.14 298.231 134.76 301.331 134.08 304.351C133.44 307.161 132.15 309.841 131.69 312.661C131.25 315.391 131.75 318.101 129.74 320.661C127.57 323.421 128.4 324.551 132.06 324.461C137.51 324.341 142.95 324.091 148.38 323.891Z" fill="#EF5E63"/>
<path d="M86.3602 242.421C86.3902 242.241 86.4302 242.061 86.4802 241.881C90.0102 241.991 90.6302 242.511 90.5402 245.741C90.4702 248.201 89.9902 250.651 90.0202 253.101C90.1002 259.421 90.5502 265.731 90.5202 272.041C90.4802 281.821 90.0402 291.601 90.0202 301.391C90.0002 308.941 90.4102 316.491 90.5302 324.051C90.5602 325.691 91.0702 326.331 92.7602 326.311C98.1102 326.231 103.65 327.121 108.74 325.981C112.14 325.221 115.14 327.051 118.45 326.001C118.31 324.721 118.2 323.611 118.08 322.501C118.43 322.411 118.79 322.321 119.14 322.231C119.59 324.221 120.04 326.211 120.49 328.211C120.49 328.211 120.44 328.211 120.43 328.211C119.58 328.691 118.73 329.181 117.88 329.661C117.82 329.841 117.75 330.011 117.69 330.191C117.21 330.131 116.72 330.081 116.24 330.021C115.61 329.581 114.98 328.751 114.34 328.741C108.6 328.641 102.85 328.641 97.1102 328.741C96.4802 328.751 95.8602 329.581 95.2402 330.041C94.5002 330.041 93.7702 330.041 93.0302 330.041C92.6502 329.601 92.2702 329.161 91.8902 328.721C91.4202 329.161 90.9502 329.611 90.4802 330.051C89.3502 330.301 88.2102 330.541 86.2902 330.961C86.1802 328.271 86.0702 325.801 85.9702 323.341C86.0302 323.281 86.1502 323.201 86.1402 323.151C86.1202 322.991 86.0402 322.841 85.9902 322.691C85.9902 321.911 86.0002 321.131 86.0102 320.351C86.1502 319.491 86.4002 318.631 86.4002 317.771C86.3902 292.651 86.3702 267.531 86.3602 242.421Z" fill="#EC2727"/>
<path d="M131.57 249.531C131.88 253.061 133.67 256.241 131.9 260.251C130.55 263.301 131.08 267.381 131.41 270.941C131.82 275.471 132.22 279.811 129.97 284.071C128.81 286.281 128.25 288.801 127.42 291.181C127.49 288.911 127.43 286.621 127.67 284.361C128.1 280.291 128.83 276.251 129.22 272.171C129.93 264.871 130.47 257.561 131.11 250.261C131.13 250.001 131.41 249.771 131.57 249.531Z" fill="#ED484C"/>
<path d="M127.4 292.331C127.12 298.331 127.73 304.311 125.29 310.231C124.15 312.981 125.45 316.671 125.31 319.921C125.25 321.441 124.51 322.981 123.85 324.401C123.5 325.151 122.65 325.661 122.03 326.281C122.31 322.431 122.42 318.561 122.91 314.741C123.71 308.501 124.68 302.281 125.73 296.081C125.95 294.771 126.83 293.571 127.4 292.331Z" fill="#ED484C"/>
<path d="M131.57 242.451C133.95 243.811 132.2 245.181 131.58 246.551C131.58 245.181 131.57 243.811 131.57 242.451Z" fill="#ED484C"/>
<path d="M126.73 44.8706C126.74 45.2606 126.75 45.6606 126.75 46.0506C126.78 47.7506 126.73 49.4706 126.86 51.1606C127.26 56.0506 127.67 60.9506 128.19 65.8306C128.87 72.2406 129.64 78.6406 130.45 85.0406C130.57 85.9706 131.15 86.8406 131.52 87.7406C131.53 88.5206 131.54 89.3006 131.54 90.0706C131.42 92.7306 131.18 95.3906 131.21 98.0506C131.26 102.731 131.39 107.411 131.66 112.081C131.82 114.831 130.33 115.091 128.15 115.081C117.95 115.021 107.75 114.991 97.5602 115.101C95.4002 115.121 93.2402 115.741 91.0902 116.091C90.7102 116.141 90.3302 116.191 89.9502 116.241C89.5502 116.231 89.1402 116.211 88.7402 116.201C89.5902 114.861 90.4402 113.511 91.3902 112.011C91.9802 112.401 92.5003 112.861 93.1003 113.091C93.6403 113.291 94.2702 113.241 94.8602 113.301C94.5902 112.711 94.4502 111.991 94.0302 111.561C92.1202 109.621 90.5002 107.701 90.5102 104.651C90.5802 75.9206 90.5702 47.1906 90.5302 18.4706C90.5302 15.9206 89.9702 13.3606 90.0302 10.8206C90.0902 8.35062 90.7202 6.10062 94.0302 6.07062C98.6602 6.02062 103.3 5.58063 107.92 5.75063C109.12 5.79063 110.27 7.45062 111.41 8.40062C112.08 8.96062 112.69 9.59063 113.32 10.1906C113.53 9.35063 113.71 8.51062 113.96 7.68062C114.29 6.57062 114.66 5.48062 115.02 4.38062C115.57 6.83062 115.98 9.33062 116.7 11.7306C118.42 17.4106 120.27 23.0606 122.11 28.7006C122.78 30.7606 123.6 32.7706 124.35 34.8006C124.36 35.5806 124.36 36.3506 124.37 37.1306C122.82 40.4206 125.44 42.4406 126.73 44.8706Z" fill="#EF3D38"/>
<path d="M158.4 31.7406C158.01 46.5906 157.56 61.8506 157.22 77.1106C157.07 83.6506 157.33 90.2106 156.99 96.7306C156.92 98.1406 155.32 100.161 153.98 100.651C151.45 101.561 148.6 101.721 145.86 101.901C143.54 102.051 142.42 100.941 142.26 98.3306C141.87 92.0206 142.18 85.3806 140.25 79.5206C137.05 69.8506 137.88 59.9106 136.39 50.1806C135.39 43.6306 134.41 37.0706 133.39 30.5206C133.3 29.9706 132.98 29.4306 132.67 28.9506C130.94 26.2306 132.49 22.9606 135.72 22.8906C138.17 22.8306 140.63 23.3006 143.08 23.3106C145.23 23.3206 147.39 23.0006 149.54 22.8506C150.03 22.8106 150.53 22.8406 151.03 22.8406C158.41 22.8406 158.41 22.8406 158.41 29.8406C158.4 30.3306 158.4 30.8306 158.4 31.7406Z" fill="#F37C83"/>
<path d="M124.35 34.8007C123.6 32.7707 122.78 30.7607 122.11 28.7007C120.26 23.0607 118.42 17.4107 116.7 11.7307C115.97 9.33067 115.57 6.83066 115.02 4.38066C115 3.98066 114.98 3.59067 114.96 3.19067C116.36 3.21067 117.76 3.24067 119.15 3.26067C120.68 3.83067 122.2 4.88067 123.74 4.90067C134.63 5.04067 145.52 5.08066 156.41 4.91066C160.24 4.85066 163.79 4.85067 166.04 8.61067C166.04 10.3607 166.04 12.1107 166.04 13.8607C165.71 14.1307 165.38 14.4007 165.05 14.6707C165.38 15.0307 165.7 15.4007 166.03 15.7607C166.03 16.1207 166.03 16.4807 166.03 16.8407C164.32 18.2707 164.27 19.6907 166.06 21.1007C166.06 21.8707 166.06 22.6307 166.07 23.4007C165.78 23.5707 165.49 23.7307 165.2 23.9007C165.49 24.1507 165.78 24.4107 166.08 24.6607C166.1 52.0207 166.11 79.3807 166.13 106.741C165.98 107.761 165.84 108.791 165.69 109.811C165.53 111.771 163.08 113.921 166.17 115.611C164.36 115.231 162.55 114.521 160.74 114.521C156.05 114.521 151.37 114.861 146.68 114.971C145.89 114.991 145.05 114.651 144.31 114.311C144.16 114.241 144.19 113.121 144.42 113.001C145.13 112.621 145.97 112.301 146.76 112.301C150.46 112.311 154.23 112.881 157.82 112.311C159.32 112.071 161.64 111.231 162.12 108.271C163.32 100.891 161.47 93.7207 161.47 86.4507C161.47 82.9807 161.47 79.5107 161.36 76.0507C161.25 72.5107 160.98 68.9707 160.87 65.4207C160.85 64.8207 161.18 63.8107 161.59 63.6707C164.01 62.8307 163.75 60.8907 163.75 59.0107C163.75 56.7307 163.65 54.4407 163.78 52.1707C163.91 49.8207 163.45 47.8507 162.01 45.8307C161.12 44.5807 160.94 42.5307 161.09 40.8907C161.38 37.7207 161.6 34.7407 160.28 31.6207C159.6 30.0107 159.57 27.4207 160.44 26.0007C163.68 20.6707 162.23 14.9407 162.41 9.37067C162.43 8.73067 160.53 7.51067 159.47 7.45067C155.72 7.21067 151.94 7.42067 148.18 7.34067C141.32 7.20067 134.45 6.94067 127.59 6.78067C124.77 6.72067 121.93 6.67067 119.14 6.94067C118.68 6.98067 117.85 8.89067 118.09 9.65067C119.72 14.7707 121.6 19.8007 123.37 24.8707C123.6 25.5107 123.8 26.1907 123.85 26.8607C124.05 29.5007 124.19 32.1507 124.35 34.8007Z" fill="#ED484C"/>
<path d="M91.0898 116.091C93.2498 115.751 95.3998 115.131 97.5598 115.101C107.76 115.001 117.96 115.021 128.15 115.081C130.33 115.091 131.82 114.831 131.66 112.081C131.39 107.411 131.26 102.731 131.21 98.0508C131.18 95.3908 131.42 92.7308 131.54 90.0708C131.94 90.9408 132.59 91.7908 132.7 92.7008C133.2 97.1908 133.79 101.681 133.89 106.181C133.95 108.881 133.5 111.731 132.56 114.241C132.18 115.271 129.9 116.111 128.48 116.141C118.73 116.301 108.97 116.231 99.2098 116.211C96.4998 116.211 93.7898 116.131 91.0898 116.091Z" fill="#ED484C"/>
<path d="M140.02 119.081C139.38 119.081 138.73 119.091 138.09 119.091C136.66 118.561 135.24 118.031 133.14 117.251C134.25 116.621 135.12 115.741 136.01 115.721C138.45 115.641 140.9 116.051 143.34 116.031C147.85 115.991 152.36 115.711 156.87 115.661C158.62 115.641 160.37 116.051 162.12 116.121C164.42 116.221 164.27 117.551 163.81 119.131C161.39 119.111 158.97 119.091 156.55 119.071C155.39 117.481 154.24 117.471 153.09 119.081C152.26 119.081 151.43 119.081 150.6 119.081C150.2 118.751 149.81 118.151 149.4 118.131C146.67 118.041 143.94 118.041 141.21 118.131C140.8 118.141 140.41 118.751 140.02 119.081Z" fill="#F37C83"/>
<path d="M131.52 87.7408C131.15 86.8408 130.57 85.9708 130.45 85.0408C129.64 78.6408 128.87 72.2408 128.19 65.8308C127.67 60.9508 127.25 56.0508 126.86 51.1608C126.72 49.4608 126.78 47.7508 126.75 46.0508C127.36 47.9808 128.23 49.8708 128.52 51.8508C128.96 54.8608 128.92 57.9408 129.26 60.9708C129.43 62.4908 130.27 63.9408 130.37 65.4608C130.84 72.8808 131.16 80.3108 131.52 87.7408Z" fill="#ED484C"/>
<path d="M166.17 115.601C163.08 113.911 165.53 111.761 165.69 109.801C166.33 109.801 166.98 109.801 167.62 109.801C167.65 109.971 167.66 110.131 167.66 110.301C167.56 110.511 167.46 110.721 167.36 110.931C167.52 111.141 167.68 111.351 167.84 111.561C167.29 112.901 166.73 114.251 166.17 115.601Z" fill="#EC2727"/>
<path d="M126.73 44.8706C125.44 42.4406 122.82 40.4206 124.37 37.1306C126.36 39.3406 127.06 41.9506 126.73 44.8706Z" fill="#ED484C"/>
<path d="M167.62 109.791C166.98 109.791 166.33 109.791 165.69 109.791C165.84 108.771 165.98 107.741 166.13 106.721C166.62 106.691 167.12 106.661 167.61 106.621C167.61 107.681 167.62 108.741 167.62 109.791Z" fill="#EF3D38"/>
<path d="M88.7401 116.201C89.1401 116.211 89.5501 116.231 89.9501 116.241C89.9601 117.191 89.9601 118.141 89.9701 119.091C89.3901 119.071 88.8201 119.041 88.2401 119.021C88.2001 118.621 88.1601 118.211 88.1201 117.811C88.1501 117.301 88.1801 116.791 88.2101 116.281C88.3901 116.261 88.5601 116.231 88.7401 116.201Z" fill="#ED484C"/>
<path d="M167.84 111.551C167.68 111.341 167.52 111.131 167.36 110.921C167.52 110.901 167.68 110.881 167.84 110.851C167.84 111.081 167.84 111.311 167.84 111.551Z" fill="#ED484C"/>
<path d="M167.84 110.851C167.68 110.881 167.52 110.911 167.36 110.921C167.46 110.711 167.56 110.501 167.66 110.301C167.78 110.461 167.84 110.641 167.84 110.851Z" fill="#EF3D38"/>
<path d="M86.3999 231.821C86.4399 231.171 86.4699 230.511 86.5099 229.861C90.3599 229.001 90.9799 228.051 90.2499 224.391C90.0399 223.341 89.9899 222.231 89.9899 221.151C89.9799 198.841 89.9399 176.531 90.0099 154.231C90.0299 147.811 90.3699 141.381 90.5899 134.961C90.6099 134.291 90.5899 133.401 90.9899 132.991C92.4999 131.381 92.1599 129.841 91.1399 128.231C102.78 128.221 114.41 128.201 126.05 128.191C127.53 128.191 129.02 128.121 130.5 128.201C133.44 128.351 134.05 129.451 134.02 132.391C133.9 144.621 134.03 156.841 133.95 169.071C133.88 179.341 133.64 189.611 133.48 199.881C133.47 200.771 133.43 201.661 133.42 202.551C133.35 210.131 133.34 217.711 133.18 225.291C133.15 226.631 132.54 227.961 132.2 229.291C127.16 229.311 122.12 229.351 117.08 229.361C110.49 229.371 103.89 229.251 97.2999 229.421C94.4799 229.491 91.6699 230.161 88.8599 230.561C88.7299 231.021 88.5999 231.491 88.4699 231.951C87.7799 231.901 87.0899 231.861 86.3999 231.821Z" fill="#EF3D38"/>
<path d="M158.41 142.721C157.72 150.751 157.94 158.121 156.23 165.011C154.92 170.301 155.57 175.461 154.89 180.641C153.7 189.831 152.92 199.071 152.01 208.291C151.86 209.761 151.89 211.251 151.85 212.741C151.74 216.861 148.95 220.031 144.89 220.111C144.06 220.131 142.61 218.611 142.48 217.661C142.23 215.861 142.91 213.951 142.88 212.101C142.79 206.871 142.34 201.641 142.37 196.411C142.47 178.391 142.74 160.381 142.89 142.361C142.91 140.051 143.72 138.871 146.17 138.821C148.23 138.781 150.29 138.451 152.34 138.181C157.36 137.521 158.44 138.471 158.41 142.721Z" fill="#F37C83"/>
<path d="M167.82 229.761C167.81 230.431 167.81 231.111 167.8 231.781C167.07 231.871 166.33 231.951 165.6 232.041C165.56 231.711 165.52 231.381 165.48 231.051C164.71 230.261 163.94 229.481 163.17 228.691C163.17 209.551 163.16 190.421 163.16 171.281C163.16 166.671 163.18 162.061 163.14 157.451C163.13 156.691 163.17 155.531 162.73 155.231C158.62 152.411 159.69 148.651 161.56 145.541C163.54 142.231 165.19 139.341 162.29 135.521C163.71 135.151 164.62 134.921 165.54 134.681C165.55 140.381 165.55 146.091 165.56 151.791C165.57 176.381 165.58 200.961 165.58 225.551C165.58 226.241 165.34 227.111 165.66 227.591C166.09 228.241 166.97 228.601 167.65 229.091C167.7 229.321 167.76 229.541 167.82 229.761Z" fill="#ED484C"/>
<path d="M167.64 229.101C166.96 228.611 166.08 228.251 165.65 227.601C165.33 227.121 165.57 226.251 165.57 225.561C165.56 200.971 165.55 176.391 165.55 151.801C165.55 146.101 165.54 140.391 165.53 134.691C165.59 134.351 165.65 134.001 165.71 133.661C166.35 133.671 166.99 133.691 167.63 133.701C167.76 134.041 167.89 134.371 168.02 134.701C168.06 135.041 168.11 135.381 168.15 135.721C168.02 138.081 167.79 140.441 167.79 142.791C167.77 170.671 167.8 198.551 167.8 226.441C167.81 227.331 167.7 228.221 167.64 229.101Z" fill="#EC2727"/>
<path d="M163.16 228.691C163.93 229.481 164.7 230.261 165.47 231.051C164.69 231.491 163.91 231.941 163.13 232.381C156.61 232.471 150.1 232.581 143.58 232.641C140.72 232.661 137.85 232.561 134.99 232.511C131.98 232.231 128.96 231.721 125.95 231.711C113.72 231.671 101.49 231.781 89.2601 231.841L89.2101 231.921C89.0901 231.461 88.9701 231.011 88.8501 230.561C91.6601 230.161 94.4701 229.501 97.2901 229.421C103.88 229.251 110.48 229.371 117.07 229.361C122.11 229.351 127.15 229.321 132.19 229.291C134.13 229.101 136.07 228.761 138.02 228.751C146.4 228.671 154.78 228.701 163.16 228.691Z" fill="#F37C83"/>
<path d="M133.91 125.481C143.49 125.491 153.06 125.511 162.64 125.521C163.53 125.971 164.41 126.411 165.96 127.191C163.54 127.601 161.7 128.161 159.85 128.181C152.07 128.271 144.28 128.241 136.5 128.171C134.88 128.161 132.82 128.251 133.91 125.481Z" fill="#F37C83"/>
<path d="M86.8602 127.481C86.8002 127.051 86.7402 126.631 86.6802 126.211C87.2102 126.091 87.7402 125.971 88.2802 125.841C88.2502 126.411 88.2202 126.981 88.1902 127.551C87.7402 127.531 87.3002 127.511 86.8602 127.481Z" fill="#EF3D38"/>
<path d="M89.9702 128.141C89.5502 128.001 89.1402 127.861 88.7202 127.711C89.1402 127.861 89.5502 128.001 89.9702 128.141Z" fill="#EF3D38"/>
<path d="M136.9 383.551C137.97 383.891 139.05 384.531 140.12 384.521C146.69 384.461 153.27 383.891 159.82 384.171C167.87 384.511 175.9 385.521 183.94 386.241C185.51 386.381 187.09 386.541 188.66 386.681C188.68 387.041 188.69 387.401 188.71 387.761C186.01 388.091 183.32 388.571 180.61 388.731C151.54 390.521 122.44 389.971 93.3502 389.861C87.9402 389.841 82.5402 389.131 77.1402 388.651C76.0502 388.551 75.0002 388.061 73.9702 387.251C93.9402 383.351 114.12 384.081 134.44 383.971C134.32 381.111 132.41 381.321 130.74 380.981C128.47 380.531 126.09 380.201 124.06 379.201C121.89 378.121 122.05 375.361 124.26 374.361C126.09 373.531 128.14 372.871 130.13 372.751C134.28 372.511 138.46 372.471 142.61 372.761C145.72 372.971 148.83 373.661 151.85 374.491C152.81 374.751 154.15 376.221 154.08 377.011C153.98 378.041 152.78 379.581 151.8 379.811C147.51 380.831 143.13 381.451 138.78 382.221C138.24 382.321 137.7 382.471 137.16 382.601C137.07 382.921 136.98 383.231 136.9 383.551Z" fill="#5D343F"/>
<path d="M164.42 241.971C154.5 241.931 144.58 241.901 134.67 241.851C133.06 241.841 131.28 241.951 131.72 239.411C132.62 239.391 133.52 239.361 134.42 239.341C135.67 239.561 136.92 239.981 138.16 239.961C144.08 239.851 150 239.641 155.91 239.411C157.16 239.361 158.41 239.111 159.66 238.961C160.24 239.001 160.82 239.041 161.39 239.081C162.34 239.381 163.36 239.531 164.21 240.011C164.96 240.431 165.51 241.211 166.15 241.821C165.97 241.911 165.79 242.001 165.61 242.081C165.21 242.051 164.82 242.011 164.42 241.971Z" fill="#F37C83"/>
<path d="M89.2603 231.841C101.49 231.781 113.72 231.671 125.95 231.711C128.97 231.721 131.98 232.231 134.99 232.511C132.98 232.641 130.96 232.901 128.95 232.891C116.67 232.871 104.38 232.811 92.1003 232.691C91.1603 232.691 90.2103 232.141 89.2603 231.841Z" fill="#EF5E63"/>
<path d="M159.65 238.961C158.4 239.121 157.15 239.371 155.9 239.411C149.98 239.631 144.07 239.851 138.15 239.961C136.91 239.981 135.66 239.561 134.41 239.341C134.74 239.151 135.07 238.811 135.4 238.811C143.49 238.841 151.57 238.901 159.65 238.961Z" fill="#EF5E63"/>
<path d="M166.15 241.821C165.51 241.201 164.96 240.431 164.21 240.011C163.36 239.531 162.34 239.381 161.39 239.081C163.38 239.301 165.36 239.511 167.35 239.731C167.33 240.431 167.31 241.141 167.29 241.841C166.9 241.831 166.52 241.831 166.15 241.821Z" fill="#EF5E63"/>
<path d="M163.14 232.381C163.92 231.941 164.7 231.491 165.48 231.051C165.52 231.381 165.56 231.711 165.6 232.041C164.78 232.151 163.96 232.271 163.14 232.381Z" fill="#EF5E63"/>
<path d="M95.4001 238.961C94.5501 238.961 93.7001 238.971 92.8501 238.971C93.7001 238.961 94.5501 238.961 95.4001 238.961Z" fill="#EF3D38"/>
<path d="M88.86 230.551C88.98 231.001 89.1 231.461 89.22 231.911C88.97 231.921 88.71 231.931 88.46 231.941C88.6 231.481 88.73 231.021 88.86 230.551Z" fill="#EF5E63"/>
<path d="M130.6 239.331C130.31 239.211 130.03 239.091 129.74 238.961C130.03 239.091 130.32 239.211 130.6 239.331Z" fill="#EF3D38"/>
<path d="M140.02 119.081C140.42 118.751 140.81 118.141 141.22 118.131C143.95 118.051 146.68 118.051 149.41 118.131C149.82 118.141 150.21 118.751 150.61 119.081C147.07 119.081 143.54 119.081 140.02 119.081Z" fill="#EF5E63"/>
<path d="M153.09 119.091C154.24 117.481 155.39 117.491 156.55 119.081C155.4 119.081 154.24 119.081 153.09 119.091Z" fill="#EF5E63"/>
<path d="M88.11 117.801C88.15 118.201 88.19 118.611 88.23 119.011C87.56 119.041 86.89 119.061 86.23 119.091C86.3 118.641 86.37 118.201 86.45 117.751C87 117.771 87.56 117.791 88.11 117.801Z" fill="#5D343F"/>
<path d="M86.3002 229.361C86.2002 228.931 86.0902 228.511 85.9902 228.081C86.0902 228.511 86.1902 228.931 86.3002 229.361Z" fill="#ED484C"/>
<path d="M88.7399 116.201C88.5599 116.231 88.3899 116.261 88.2099 116.281C87.6399 116.261 87.0699 116.241 86.5099 116.221C86.3199 112.261 86.1299 108.311 85.9299 104.351C86.0799 103.401 86.3699 102.451 86.3699 101.501C86.3899 70.5807 86.3899 39.6607 86.3699 8.7307C86.3699 7.6707 86.0999 6.6207 85.9499 5.5607C85.7799 2.0407 86.0599 1.8007 89.4299 1.8607C94.2699 1.9507 99.1099 1.8307 103.94 2.0507C107.62 2.2207 111.29 2.79069 114.96 3.18069C114.98 3.58069 115 3.97069 115.02 4.37069C114.67 5.47069 114.29 6.5707 113.96 7.6707C113.72 8.5007 113.53 9.34069 113.32 10.1807C112.68 9.58069 112.08 8.9507 111.41 8.3907C110.27 7.4407 109.12 5.78069 107.92 5.74069C103.3 5.57069 98.6599 6.0107 94.0299 6.0607C90.7199 6.1007 90.0899 8.3507 90.0299 10.8107C89.9699 13.3507 90.5199 15.9107 90.5299 18.4607C90.5699 47.1907 90.5799 75.9207 90.5099 104.641C90.4999 107.681 92.1199 109.601 94.0299 111.551C94.4599 111.981 94.5899 112.701 94.8599 113.291C94.2699 113.231 93.6299 113.281 93.0999 113.081C92.4999 112.851 91.9799 112.391 91.3899 112.001C90.4399 113.511 89.5899 114.861 88.7399 116.201Z" fill="#EC2727"/>
<path d="M166.04 8.60061C163.79 4.84061 160.24 4.84062 156.41 4.90062C145.52 5.07062 134.63 5.03062 123.74 4.89062C122.2 4.87062 120.68 3.82062 119.15 3.25062C121.98 3.03062 124.81 2.63062 127.64 2.62062C139.29 2.58062 150.94 2.67061 162.59 2.71061C162.79 3.22061 162.94 4.15062 163.2 4.19062C165.96 4.55062 165.85 6.66061 166.04 8.60061Z" fill="#EF3D38"/>
<path d="M85.9499 5.56079C86.0999 6.62079 86.3699 7.67079 86.3699 8.73079C86.3899 39.6508 86.3899 70.5708 86.3699 101.501C86.3699 102.451 86.0799 103.401 85.9299 104.351C85.8999 75.6708 85.8699 46.9908 85.8599 18.3108C85.8499 14.0608 85.9199 9.81079 85.9499 5.56079Z" fill="#ED484C"/>
<path d="M86.5099 116.211C87.0799 116.231 87.64 116.251 88.21 116.271C88.18 116.781 88.15 117.291 88.12 117.801C87.57 117.781 87.01 117.771 86.46 117.751C86.47 117.241 86.4899 116.731 86.5099 116.211Z" fill="#EF3D38"/>
<path d="M166.06 21.0908C164.27 19.6808 164.32 18.2608 166.03 16.8308C166.04 18.2508 166.05 19.6708 166.06 21.0908Z" fill="#EF3D38"/>
<path d="M166.04 15.7506C165.71 15.3906 165.39 15.0206 165.06 14.6606C165.39 14.3906 165.72 14.1206 166.05 13.8506C166.04 14.4806 166.04 15.1206 166.04 15.7506Z" fill="#EF3D38"/>
<path d="M166.08 24.6506C165.79 24.4006 165.5 24.1406 165.2 23.8906C165.49 23.7206 165.78 23.5606 166.07 23.3906C166.07 23.8106 166.07 24.2306 166.08 24.6506Z" fill="#EF3D38"/>
<path d="M164.42 241.971C164.82 242.011 165.21 242.051 165.61 242.081C165.61 270.181 165.61 298.291 165.61 326.361C164.42 326.771 163.57 327.071 162.46 327.451C163.69 328.361 164.63 329.051 165.57 329.751C164.2 329.891 162.84 330.031 161.47 330.171C159.26 330.031 157.05 329.881 154.84 329.741C152.49 329.621 150.14 329.501 147.78 329.381C146.16 329.541 144.54 329.691 142.93 329.851C141.14 329.851 139.36 329.841 137.57 329.841C137.15 329.681 136.73 329.521 136.3 329.351C135.93 329.331 135.56 329.301 135.19 329.281C134.21 328.591 133.24 327.891 132.26 327.201C132.31 326.891 132.36 326.581 132.41 326.271C136.52 326.051 140.63 325.781 144.74 325.621C146.67 325.551 148.6 325.681 150.53 325.731C152.7 325.791 154.92 325.591 157.02 325.981C162.43 326.971 164.29 325.681 164.29 320.021C164.29 314.501 163.88 308.981 163.78 303.461C163.68 297.921 163.69 292.371 163.76 286.831C163.91 274.581 164.14 262.331 164.31 250.081C164.32 249.121 164.42 247.821 163.88 247.251C161.88 245.131 162.34 243.531 164.42 241.971Z" fill="#ED484C"/>
<path d="M165.57 329.751C164.63 329.051 163.69 328.361 162.46 327.451C163.57 327.071 164.42 326.771 165.61 326.361C165.61 298.291 165.61 270.181 165.61 242.081C165.79 241.991 165.97 241.911 166.15 241.821C166.53 241.831 166.91 241.831 167.29 241.841C167.47 242.051 167.66 242.251 167.84 242.461C167.87 270.211 167.89 297.961 167.92 325.711C167.92 326.501 167.95 327.291 167.97 328.091C167.87 329.661 167.04 330.171 165.57 329.751Z" fill="#EF3D38"/>
<path d="M154.83 329.741C157.04 329.881 159.25 330.031 161.46 330.171C159.25 330.031 157.04 329.881 154.83 329.741Z" fill="#EF5E63"/>
<path d="M142.92 329.851C144.54 329.691 146.16 329.531 147.77 329.381C146.16 329.541 144.54 329.691 142.92 329.851Z" fill="#EF5E63"/>
<path d="M136.3 329.351C136.72 329.511 137.14 329.671 137.57 329.841C137.14 329.671 136.72 329.511 136.3 329.351Z" fill="#EF5E63"/>
<path d="M95.2402 330.031C95.8602 329.581 96.4802 328.741 97.1102 328.731C102.85 328.631 108.6 328.631 114.34 328.731C114.98 328.741 115.6 329.561 116.24 330.011C109.24 330.021 102.24 330.021 95.2402 330.031Z" fill="#EF3D38"/>
<path d="M90.4702 330.041C90.9402 329.601 91.4102 329.151 91.8802 328.711C92.2602 329.151 92.6402 329.591 93.0202 330.031C92.1802 330.031 91.3302 330.031 90.4702 330.041Z" fill="#EF3D38"/>
<path d="M117.88 329.651C118.73 329.161 119.58 328.681 120.43 328.201C119.8 328.771 119.17 329.351 118.54 329.921C118.32 329.831 118.1 329.741 117.88 329.651Z" fill="#EF3D38"/>
<path d="M85.9702 322.681C86.0302 322.831 86.1002 322.981 86.1202 323.141C86.1302 323.191 86.0102 323.271 85.9502 323.331C85.9702 323.111 85.9702 322.901 85.9702 322.681Z" fill="#ED484C"/>
<path d="M117.88 329.651C118.1 329.741 118.32 329.831 118.54 329.911C118.26 330.001 117.97 330.091 117.68 330.181C117.75 330.011 117.82 329.831 117.88 329.651Z" fill="#EF5E63"/>
<path d="M148.38 323.891C142.94 324.091 137.51 324.341 132.07 324.471C128.41 324.551 127.59 323.431 129.75 320.671C131.76 318.111 131.26 315.401 131.7 312.671C132.16 309.851 133.45 307.171 134.09 304.361C134.78 301.331 135.16 298.231 135.6 295.161C135.71 294.421 135.43 293.621 135.55 292.881C136.39 287.371 137.42 281.881 138.13 276.351C138.73 271.691 138.96 266.991 139.38 262.301C139.42 261.821 139.46 261.201 139.76 260.911C142.6 258.161 141.59 254.431 142.32 251.151C142.47 250.491 142.17 249.701 142.4 249.091C142.98 247.581 142.15 244.971 144.68 244.911C147.2 244.851 149.71 245.801 150.55 248.521C151.12 250.361 151.11 252.401 151.21 254.361C151.32 256.381 151.25 258.421 151.26 260.451C151.27 262.681 151.13 264.931 151.32 267.141C151.59 270.221 152.11 273.281 152.55 276.351C152.66 277.131 152.99 277.881 153.01 278.651C153.24 285.661 153.42 292.671 153.63 299.681C153.82 306.101 154.09 312.511 154.21 318.931C154.3 324.231 153.93 324.511 148.38 323.891Z" fill="#F37C83"/>
</svg>
