<svg width="255" height="370" viewBox="0 0 255 370" fill="none" xmlns="http://www.w3.org/2000/svg">
<path opacity="0.28" d="M127.32 312.18C197.637 312.18 254.64 255.177 254.64 184.86C254.64 114.543 197.637 57.54 127.32 57.54C57.0031 57.54 0 114.543 0 184.86C0 255.177 57.0031 312.18 127.32 312.18Z" fill="#F8D651"/>
<path d="M107.88 187.55C107.88 187.55 108.16 187.58 108.15 187.58C108.4 189.73 108.86 191.88 108.86 194.04C108.9 222.5 108.95 250.96 108.78 279.41C108.76 282.12 107.69 284.96 106.57 287.51C103.2 295.2 91.2501 294.34 87.2501 287.37C85.9001 285.01 85.0301 282 85.0201 279.29C84.8701 249.25 84.9401 219.2 84.9401 189.16C84.9401 188.57 84.8801 187.97 84.8501 187.38C84.9601 187.29 85.0701 187.2 85.1801 187.1C85.9801 187.2 86.7901 187.3 87.6001 187.4C87.4301 190.15 87.1201 192.89 87.1101 195.64C87.0701 215.25 87.0901 234.87 87.0901 254.48C87.0901 263.49 87.1001 272.51 87.0901 281.52C87.0801 284.45 87.9001 286.84 90.2801 287.94C90.2801 264.16 90.2801 240.32 90.2801 216.16C93.2501 218.05 94.9101 221.88 98.9701 221.72C98.9801 225.73 98.9901 229.75 98.9901 233.76C98.9901 249.91 99.0101 266.05 98.9701 282.2C98.9701 283.66 98.5901 285.11 98.3901 286.57C98.3401 287.75 98.2901 288.94 98.2401 290.12C99.2901 290.1 100.35 290.09 101.4 290.07C104.17 289.39 105.15 287.1 106.16 284.83C106.55 283.94 107.25 283.05 107.27 282.16C107.38 276.92 107.34 271.67 107.33 266.42C107.29 251.08 107.25 235.73 107.2 220.39C107.2 218.1 107.2 215.81 107.2 213.52C107.2 212.04 107.19 210.56 107.19 209.07C107.18 202.62 107.17 196.17 107.16 189.72C107.4 189 107.64 188.27 107.88 187.55Z" fill="#F87272"/>
<path d="M147.11 264.02C147.05 265.66 146.95 267.3 146.95 268.94C146.94 298.26 146.94 327.58 146.94 356.89C146.94 364.41 141.78 370.49 133.95 369.65C128.99 369.12 123.01 363.68 123.02 358.45C123.05 330.92 123.01 303.38 123.04 275.85C123.04 271.9 123.31 267.95 123.46 264C124.2 264.05 124.95 264.09 125.69 264.13C125.52 269.42 125.24 274.72 125.19 280.01C125.11 288.43 125.17 296.86 125.17 305.29C125.17 322.64 125.17 339.98 125.17 357.33C125.17 359.16 124.96 361.11 127.74 362.16C127.9 360.7 128.14 359.5 128.15 358.29C128.3 341.16 128.42 324.03 128.58 306.9C128.59 305.88 128.93 304.87 129.11 303.86C130.24 304.55 131.44 305.15 132.48 305.96C132.97 306.35 133.37 307.1 133.45 307.73C133.93 311.83 134.71 315.96 134.64 320.06C134.42 332.74 135.65 345.46 133.62 358.1C133.32 359.97 133.85 362.02 134.23 363.94C134.33 364.42 135.31 364.73 135.89 365.12C137.41 368.29 139.09 368.28 141.89 365.1C142.68 363.72 143.46 362.33 144.25 360.95C144.58 359.69 144.91 358.43 145.24 357.18C145.24 339.05 145.24 320.91 145.24 302.78C145.24 301.88 145.24 300.98 145.24 300.08C145.23 288.88 145.22 277.69 145.21 266.49C145.25 265.79 145.29 265.08 145.33 264.38C145.35 264.21 145.34 264.04 145.31 263.87C145.67 263.84 146.04 263.81 146.4 263.78C146.62 263.86 146.87 263.94 147.11 264.02Z" fill="#F87272"/>
<path d="M158.07 180.24C158.53 180.2 158.99 180.17 159.45 180.13C159.58 180.21 159.69 180.32 159.78 180.46C159.76 211.15 159.74 241.84 159.75 272.53C159.75 273.59 159.96 274.72 160.38 275.69C160.63 276.27 161.49 276.6 162.07 277.04C162.49 277.4 162.91 277.75 163.32 278.11C163.48 277.87 163.64 277.63 163.8 277.39C163.22 277.07 162.65 276.76 162.07 276.44C162.08 275.08 162.1 273.71 162.11 272.35C163.9 271.31 163.88 270.28 162.11 269.23C162.11 254.2 162.11 239.18 162.11 224.15C165.09 222.37 165.65 222.64 165.58 226.29C165.52 229 166.7 230.09 169.29 229.95C169.65 229.98 170.02 230.02 170.38 230.05C170.52 230.62 170.78 231.2 170.78 231.77C170.66 241.73 170.55 251.69 170.36 261.65C170.27 266.47 170.1 271.29 169.82 276.1C169.56 280.6 170.62 282.36 173.94 282.42C174.93 282.11 176.48 282.08 176.82 281.43C178.24 278.7 180.3 275.8 180.32 272.94C180.56 242.97 180.45 213 180.46 183.03C180.46 181.87 180.78 180.71 180.95 179.55C181.58 179.41 182.2 179.27 182.83 179.13C182.87 179.45 182.91 179.77 182.95 180.09C182.68 181.21 182.18 182.34 182.17 183.47C182.13 213.02 182.19 242.56 182.09 272.11C182.08 274.69 181.71 277.62 180.45 279.79C177.39 285.09 173.29 285.91 167.12 284.69C162.11 283.7 158.7 278.96 158.67 273.48C158.58 256.85 158.61 240.22 158.6 223.6C158.59 210.22 158.6 196.83 158.56 183.45C158.59 182.36 158.25 181.3 158.07 180.24Z" fill="#F87272"/>
<path d="M145.19 266.49C145.2 277.69 145.21 288.88 145.22 300.08C144.72 300.53 144.21 300.98 143.71 301.43C144.21 301.88 144.72 302.33 145.22 302.78C145.22 320.91 145.22 339.05 145.22 357.19C142.73 357.88 143.48 359.42 144.23 360.96C143.44 362.34 142.66 363.73 141.87 365.11C140.48 364.91 139.09 364.71 137.71 364.51C137.7 361.58 137.69 358.65 137.69 355.73C137.69 340.47 137.71 325.2 137.66 309.94C137.66 308.49 137.23 307.04 137.01 305.59C136.25 303.64 135.9 301.93 137.3 299.86C138.09 298.69 137.55 296.61 137.61 294.95C137.61 290.75 137.61 286.56 137.61 282.36C137.61 280.41 137.6 278.46 137.6 276.5C137.23 275.1 136.87 273.7 136.5 272.29C135.91 271.14 134.6 269.81 134.84 268.87C135.84 264.95 133.84 264.2 130.68 264.25C130.21 264.26 129.73 264.09 129.26 264C128.07 264.05 126.89 264.1 125.7 264.15C124.95 264.1 124.21 264.06 123.47 264.01H123.26L123.06 263.97C123.05 263.63 123.04 263.29 123.03 262.95C129.91 263.11 136.8 263.26 143.68 263.45C144.23 263.46 144.77 263.73 145.31 263.87C145.34 264.04 145.35 264.21 145.33 264.39C144.81 264.72 144.28 265.05 143.76 265.38C144.22 265.75 144.7 266.12 145.19 266.49Z" fill="#E43222"/>
<path d="M149.57 262.15C149.37 262.53 149.18 262.92 148.98 263.3C148.58 263.33 148.18 263.36 147.78 263.39C147.77 263.16 147.77 262.93 147.76 262.71C148.36 262.52 148.97 262.33 149.57 262.15Z" fill="#48281D"/>
<path d="M147.76 262.71C147.77 262.94 147.77 263.17 147.78 263.39C147.56 263.6 147.33 263.81 147.11 264.02C146.87 263.94 146.62 263.86 146.38 263.78C146.47 263.41 146.55 263.04 146.64 262.67C147.01 262.68 147.38 262.69 147.76 262.71Z" fill="#898584"/>
<path d="M126.35 87.21C127.64 87.75 128.93 88.74 130.22 88.75C142.12 88.85 154.01 88.79 165.91 88.77C171.94 88.76 177.96 88.81 183.99 88.75C187.25 88.72 190.51 88.42 193.77 88.39C197.34 88.36 197.95 89.03 197.95 92.49C197.95 92.89 197.95 93.28 197.95 93.68C197.99 98.02 197.98 97.91 193.76 98.05C192.17 98.1 190.61 98.84 189.04 99.27C187.93 98.82 186.82 98.01 185.7 97.98C180.1 97.85 174.49 97.93 168.89 97.93C156.24 97.93 143.6 97.94 130.95 97.93C109.64 97.92 88.3301 97.89 67.0201 97.95C65.6701 97.95 64.3201 98.73 62.9701 99.15C62.1801 98.78 61.4201 98.32 60.6101 98.05C59.3701 97.64 57.1202 97.54 57.0102 96.97C56.5702 94.7 56.5801 92.27 56.9101 89.96C57.0001 89.31 58.7102 88.42 59.6802 88.42C74.0002 88.47 88.3302 88.69 102.65 88.77C108.27 88.8 113.9 88.53 119.52 88.54C121.49 88.54 122.59 87.62 123.35 86C123.72 86.52 124.08 87.04 124.49 87.61C125.09 87.51 125.72 87.36 126.35 87.21Z" fill="#48281D"/>
<path d="M180.97 179.54C180.8 180.7 180.48 181.86 180.48 183.02C180.46 212.99 180.58 242.96 180.34 272.93C180.32 275.79 178.25 278.69 176.84 281.42C176.5 282.07 174.95 282.1 173.96 282.41C173.96 264.88 173.96 247.35 173.96 229.73C172.53 229.86 171.47 229.95 170.4 230.04C170.04 230.01 169.67 229.97 169.31 229.94C168.75 229.19 168.2 228.44 167.98 228.15C169.52 225.89 170.87 223.87 172.26 221.87C174.15 219.14 173.55 216.18 173.43 213.13C173.17 206.83 173.38 200.51 173.32 194.2C173.31 193.06 172.94 191.91 172.73 190.77C172.51 190.36 172.39 189.81 172.05 189.58C170.07 188.19 168.8 186.7 169.75 183.99C170.24 182.58 169.64 181.29 167.75 181.16C165.09 180.97 162.44 180.69 159.78 180.46C159.7 180.32 159.59 180.21 159.45 180.13C159.4 179.87 159.35 179.6 159.3 179.33C162.21 179.39 165.14 179.34 168.04 179.54C169.75 179.66 171.44 180.46 173.13 180.42C175.75 180.37 178.36 179.86 180.97 179.54Z" fill="#E43222"/>
<path d="M126.18 21.1499C126.23 27.0899 126.29 33.0199 126.33 38.9599C126.37 43.7699 127.16 44.4899 132.01 44.7299C141.97 45.2299 150.37 49.6899 158.3 55.2799C158.41 55.3599 158.38 55.6399 158.5 56.2699C157.56 56.3599 156.66 56.5199 155.77 56.5199C147.26 56.5299 138.74 56.4699 130.23 56.5499C129.03 56.5599 127.83 57.1699 126.62 57.4999C125.15 56.9399 123.94 57.0799 123.24 58.6899C121.89 58.0999 120.55 57.0399 119.19 57.0099C110.19 56.8599 101.19 56.9399 92.1901 56.9199C91.2801 56.9199 90.3701 56.7999 89.4601 56.7399C89.3401 56.4199 89.2201 56.0999 89.1001 55.7699C91.6401 54.0999 94.0701 52.2099 96.7501 50.7999C104.06 46.9499 111.73 44.2199 120.08 43.5799C121.2 43.4899 122.23 42.1699 123.3 41.4199C125.27 41.6599 125.26 40.3699 125.24 38.9799C125.19 33.9399 125.12 28.8999 125.19 23.8699C125.22 22.9599 125.84 22.0599 126.18 21.1499Z" fill="#48281D"/>
<path d="M126.18 21.15C125.84 22.06 125.22 22.96 125.21 23.87C125.14 28.91 125.21 33.94 125.26 38.98C125.27 40.36 125.29 41.65 123.32 41.42C123.23 34.3 123.14 27.19 123.04 20.07C122.88 19.5 122.74 18.45 122.55 18.44C121.46 18.4 120.36 18.6 119.27 18.71C118.23 18.57 117.19 18.43 116.15 18.29C116.04 17.98 115.94 17.66 115.83 17.35C115.57 17.51 115.31 17.68 115.06 17.84C111.74 16.87 108.8 13.35 108.47 9.95C108.42 9.46 108.38 8.96 108.38 8.47C108.37 5.72 108.38 2.96 108.38 0C119.43 0 130.15 0 141.16 0C141.16 3.38 141.61 6.78 141.05 10C140.34 14.02 136.94 18.65 130.89 18.33C128.63 18.21 126.7 18.46 126.18 21.15Z" fill="#020202"/>
<path d="M62.9702 99.1799C64.3202 98.7599 65.6702 97.9799 67.0202 97.9799C88.3302 97.9099 109.64 97.9499 130.95 97.9599C143.6 97.9599 156.24 97.9599 168.89 97.9599C174.49 97.9599 180.1 97.8799 185.7 98.0099C186.82 98.0399 187.93 98.8499 189.04 99.2999C188.05 99.8799 187.07 100.93 186.07 100.96C182.12 101.07 178.14 100.56 174.21 100.83C165.7 101.42 157.19 101.04 148.69 101.26C144.25 101.38 139.82 101.76 135.38 101.81C133.76 101.83 132.13 101.26 130.51 100.95C129.88 100.75 129.26 100.39 128.63 100.38C119.64 100.34 110.65 100.34 101.66 100.39C100.97 100.39 100.27 100.85 99.5802 101.1C98.1802 101.24 96.7802 101.38 95.3802 101.52C94.4102 101.13 93.4502 100.41 92.4802 100.4C84.0802 100.32 75.6802 100.34 67.2702 100.39C66.3402 100.4 65.4102 100.75 64.4902 100.94C63.9902 100.35 63.4802 99.7599 62.9702 99.1799Z" fill="#020202"/>
<path d="M180.97 179.54C178.36 179.86 175.75 180.36 173.14 180.42C171.45 180.46 169.76 179.65 168.05 179.54C165.14 179.34 162.22 179.39 159.31 179.33C158.76 179.14 158.11 179.08 157.68 178.74C157.07 178.26 156.62 177.58 156.09 176.99C156.73 176.57 157.35 175.83 158.01 175.79C160.38 175.66 162.8 176.09 165.12 175.73C168.9 175.15 172.6 175.4 176.35 175.78C178.11 175.96 179.92 175.6 181.69 175.72C182.67 175.78 183.62 176.32 184.58 176.65C184 177.47 183.43 178.29 182.85 179.11C182.22 179.26 181.59 179.4 180.97 179.54Z" fill="#48281D"/>
<path d="M84.9502 186.25C84.1102 185.62 83.2702 184.99 82.4202 184.36C83.4302 183.95 84.4202 183.29 85.4602 183.18C89.2502 182.8 93.0502 182.39 96.8502 182.39C101.34 182.4 105.84 182.77 110.32 183.12C110.9 183.16 111.41 183.99 111.96 184.45C111.48 184.96 111.08 185.66 110.49 185.95C109.73 186.31 108.81 186.34 107.95 186.51C107.37 186.69 106.79 186.86 106.21 187.04C103.03 187.05 99.8402 187.05 96.6602 187.05C95.0102 186.99 93.3501 186.93 91.7001 186.88C89.4401 186.66 87.2002 186.45 84.9502 186.25Z" fill="#48281D"/>
<path d="M135.21 103.82C135.21 154.64 135.21 205.46 135.21 256.27C135.1 256.27 135 256.27 134.89 256.27C134.89 205.49 134.89 154.72 134.89 103.94C135 103.91 135.1 103.86 135.21 103.82Z" fill="#48281D"/>
<path d="M123.26 58.6901C123.96 57.0801 125.17 56.9401 126.64 57.5001C126.5 60.8201 126.25 64.1501 126.24 67.4801C126.21 74.0601 126.31 80.6401 126.36 87.2201C125.73 87.3701 125.1 87.5201 124.49 87.6601C124.09 87.0901 123.72 86.5701 123.35 86.0501C123.32 76.9201 123.29 67.8001 123.26 58.6901Z" fill="#020202"/>
<path d="M146.64 262.67C146.55 263.04 146.47 263.41 146.38 263.78C146.02 263.81 145.65 263.84 145.29 263.87C144.75 263.72 144.21 263.46 143.66 263.45C136.77 263.26 129.89 263.11 123.01 262.95C122.14 262.36 121.27 261.77 120.4 261.17C121.42 260.76 122.42 260.03 123.45 260C126.18 259.91 128.93 260.26 131.65 260.15C132.72 260.11 133.76 259.29 134.39 259.01C137.39 259.65 140.08 260.22 142.77 260.8C144.06 261.42 145.35 262.05 146.64 262.67Z" fill="#48281D"/>
<path d="M64.5002 100.94C65.4302 100.75 66.3502 100.4 67.2802 100.39C75.6802 100.34 84.0902 100.32 92.4902 100.4C93.4602 100.41 94.4302 101.13 95.3902 101.52C86.0302 101.49 76.6602 101.47 67.3002 101.41C66.3602 101.4 65.4302 101.1 64.5002 100.94Z" fill="#48281D"/>
<path d="M99.5901 101.1C100.28 100.85 100.97 100.4 101.67 100.39C110.66 100.34 119.65 100.34 128.64 100.38C129.27 100.38 129.89 100.75 130.52 100.95C130.07 101.1 129.62 101.38 129.16 101.38C119.57 101.41 109.99 101.41 100.4 101.4C100.13 101.4 99.8601 101.2 99.5901 101.1Z" fill="#48281D"/>
<path d="M146.64 262.67C145.35 262.05 144.06 261.43 142.78 260.8C144.79 260.67 146.79 260.48 148.8 260.49C149.06 260.49 149.32 261.57 149.57 262.14C148.97 262.33 148.36 262.51 147.76 262.7C147.38 262.69 147.01 262.68 146.64 262.67Z" fill="#020202"/>
<path d="M84.9502 186.25C87.2002 186.46 89.4502 186.66 91.7002 186.87C91.5202 186.99 91.3402 187.12 91.1702 187.24C89.9802 187.29 88.8002 187.34 87.6102 187.39C86.8002 187.29 85.9902 187.19 85.1902 187.09C85.1102 186.81 85.0302 186.53 84.9502 186.25Z" fill="#E43222"/>
<path d="M119.28 18.71C120.37 18.59 121.47 18.39 122.56 18.44C122.74 18.45 122.89 19.5 123.05 20.07C121.79 19.61 120.53 19.16 119.28 18.71Z" fill="#48281D"/>
<path d="M106.21 187.03C106.79 186.85 107.37 186.68 107.95 186.5C107.92 186.85 107.9 187.2 107.87 187.56C107.63 188.28 107.39 189 107.16 189.72C106.85 188.82 106.53 187.92 106.21 187.03Z" fill="#D25555"/>
<path d="M115.07 17.8401C115.33 17.6801 115.59 17.5101 115.84 17.3501C115.95 17.6601 116.05 17.9801 116.16 18.2901C115.79 18.1401 115.43 17.9901 115.07 17.8401Z" fill="#48281D"/>
<path d="M106.21 187.03C106.53 187.93 106.85 188.82 107.16 189.72C107.17 196.17 107.18 202.62 107.19 209.07C105.55 210.55 105.54 212.04 107.2 213.51C107.2 215.8 107.2 218.09 107.2 220.38C106.85 221.31 106.2 222.23 106.2 223.16C106.14 243.71 106.16 264.27 106.16 284.82C105.15 287.09 104.16 289.39 101.4 290.06C100.4 288.89 99.3903 287.73 98.3903 286.56C98.5903 285.1 98.9603 283.65 98.9703 282.19C99.0103 266.04 99.0003 249.9 98.9903 233.75C98.9903 229.74 98.9803 225.72 98.9703 221.71C98.0303 220.54 97.0803 219.37 96.5103 218.67C97.6403 216.2 99.2603 214.14 99.4303 211.97C99.8103 207.28 99.4403 202.53 99.3803 197.8C99.3903 197.07 99.4003 196.34 99.4103 195.61C99.4103 195.33 99.4103 195.06 99.4103 194.78C99.3703 194.59 99.2503 194.49 99.0503 194.47C98.8403 194.22 98.6303 193.98 98.4103 193.73C97.8303 191.5 97.2403 189.27 96.6603 187.03C99.8403 187.04 103.03 187.03 106.21 187.03Z" fill="#E43222"/>
<path d="M99.3802 197.8C99.4402 202.53 99.8002 207.28 99.4302 211.97C99.2602 214.14 97.6402 216.19 96.5102 218.67C97.0802 219.37 98.0202 220.54 98.9702 221.71C94.9202 221.87 93.2502 218.04 90.2802 216.15C90.2802 240.32 90.2802 264.16 90.2802 287.93C87.9002 286.83 87.0802 284.44 87.0902 281.51C87.1102 272.5 87.0902 263.48 87.0902 254.47C87.0902 234.86 87.0702 215.24 87.1102 195.63C87.1202 192.88 87.4302 190.14 87.6002 187.39C88.7902 187.34 89.9702 187.29 91.1602 187.24C91.1202 191.73 93.2402 193.98 97.8302 193.66C98.0202 193.65 98.2202 193.71 98.4102 193.74C98.6202 193.99 98.8302 194.23 99.0502 194.48C99.1402 194.62 99.2602 194.72 99.4102 194.79C99.4102 195.07 99.4102 195.34 99.4102 195.62C98.5202 195.24 97.6602 194.75 96.7302 194.51C95.1002 194.1 93.6702 194.29 93.6602 196.46C93.6402 202.2 93.6102 207.95 93.7202 213.69C93.7302 214.36 94.6202 215.58 95.0402 215.56C95.8302 215.51 96.8502 214.91 97.2702 214.22C97.7402 213.45 97.7702 212.34 97.7902 211.37C97.8402 207.61 97.7302 203.84 97.8902 200.09C97.9102 199.31 98.8502 198.56 99.3802 197.8Z" fill="#EC5353"/>
<path d="M106.16 284.82C106.16 264.27 106.14 243.71 106.2 223.16C106.2 222.23 106.85 221.31 107.2 220.38C107.24 235.72 107.29 251.06 107.33 266.41C107.34 271.66 107.38 276.91 107.27 282.15C107.25 283.04 106.55 283.93 106.16 284.82Z" fill="#D25555"/>
<path d="M98.3802 286.56C99.3802 287.73 100.39 288.89 101.39 290.06C100.34 290.08 99.2802 290.09 98.2302 290.11C98.2802 288.93 98.3302 287.75 98.3802 286.56Z" fill="#EC5353"/>
<path d="M107.2 213.51C105.54 212.03 105.56 210.55 107.19 209.07C107.19 210.55 107.2 212.03 107.2 213.51Z" fill="#D25555"/>
<path d="M137 305.58C137.23 307.03 137.65 308.48 137.65 309.93C137.7 325.19 137.68 340.46 137.68 355.72C137.68 358.65 137.69 361.58 137.7 364.5C137.09 364.71 136.48 364.91 135.86 365.12C135.28 364.73 134.29 364.43 134.2 363.94C133.82 362.02 133.29 359.97 133.59 358.1C135.63 345.46 134.39 332.74 134.61 320.06C134.68 315.96 133.9 311.83 133.42 307.73C133.35 307.1 132.95 306.35 132.45 305.96C131.41 305.15 130.22 304.54 129.08 303.86C128.89 304.87 128.56 305.89 128.55 306.9C128.39 324.03 128.28 341.16 128.12 358.29C128.11 359.49 127.87 360.7 127.71 362.16C124.94 361.1 125.14 359.16 125.14 357.33C125.14 339.98 125.14 322.64 125.14 305.29C125.14 296.86 125.08 288.44 125.16 280.01C125.21 274.71 125.49 269.42 125.66 264.13C126.85 264.08 128.03 264.03 129.22 263.98C129.43 264.64 129.76 265.28 129.84 265.95C130.06 267.79 129.5 270.39 130.5 271.29C131.72 272.37 134.22 272 136.16 272.26C136.26 272.27 136.36 272.27 136.46 272.27C136.83 273.67 137.19 275.07 137.56 276.48C137.56 278.43 137.57 280.38 137.57 282.34C137.57 286.54 137.57 290.73 137.57 294.93C137.27 298.77 135.12 301.38 131.5 303C131.58 303.33 131.66 303.66 131.74 303.98C133.52 304.52 135.26 305.05 137 305.58Z" fill="#EC5353"/>
<path d="M135.87 365.13C136.48 364.92 137.09 364.72 137.71 364.51C139.1 364.71 140.49 364.91 141.87 365.11C139.07 368.29 137.38 368.3 135.87 365.13Z" fill="#D25555"/>
<path d="M144.23 360.96C143.48 359.42 142.73 357.88 145.22 357.19C144.88 358.44 144.55 359.7 144.23 360.96Z" fill="#D25555"/>
<path d="M145.22 302.78C144.72 302.33 144.21 301.88 143.71 301.43C144.21 300.98 144.72 300.53 145.22 300.08C145.22 300.98 145.22 301.88 145.22 302.78Z" fill="#D25555"/>
<path d="M145.19 266.49C144.71 266.12 144.22 265.74 143.74 265.37C144.26 265.04 144.79 264.71 145.31 264.38C145.27 265.09 145.23 265.79 145.19 266.49Z" fill="#D25555"/>
<path d="M172.73 190.77C172.93 191.91 173.3 193.05 173.32 194.2C173.38 200.51 173.17 206.83 173.43 213.13C173.55 216.18 174.16 219.14 172.26 221.87C170.87 223.87 169.51 225.89 167.98 228.15C168.19 228.44 168.75 229.19 169.31 229.94C166.73 230.09 165.55 229 165.6 226.28C165.67 222.63 165.11 222.36 162.13 224.14C162.11 211.01 162.09 197.88 162.08 184.75C162.08 184.26 161.94 183.64 162.18 183.3C162.58 182.73 163.24 182.35 163.79 181.89C164.21 182.42 164.83 182.9 165 183.51C165.21 184.24 165.13 185.08 165.04 185.86C164.8 188.13 165.7 189.25 168.05 188.99C167.45 190.59 166.36 192.19 166.32 193.8C166.14 201.92 166.14 210.05 166.32 218.17C166.35 219.68 167.4 221.22 168.19 222.64C168.43 223.07 169.61 223.47 169.91 223.26C170.44 222.89 170.9 222.02 170.89 221.37C170.81 217.88 170.53 214.39 170.41 210.9C170.17 203.79 169.99 196.69 169.79 189.58C170.76 189.98 171.74 190.38 172.73 190.77Z" fill="#EC5353"/>
<path d="M172.73 190.77C171.75 190.37 170.76 189.98 169.78 189.58C169.2 189.38 168.62 189.19 168.04 188.99C165.69 189.24 164.79 188.13 165.03 185.86C165.11 185.08 165.2 184.23 164.99 183.51C164.81 182.9 164.2 182.43 163.78 181.89C163.23 182.35 162.58 182.74 162.17 183.3C161.93 183.64 162.07 184.26 162.07 184.75C162.09 197.88 162.1 211.01 162.12 224.14C162.12 239.17 162.12 254.2 162.12 269.22C162.12 270.26 162.12 271.3 162.12 272.34C162.11 273.7 162.09 275.07 162.08 276.43C162.08 276.63 162.08 276.83 162.07 277.03C161.49 276.59 160.64 276.27 160.38 275.68C159.96 274.72 159.75 273.58 159.75 272.52C159.74 241.83 159.76 211.14 159.78 180.45C162.44 180.69 165.09 180.97 167.75 181.15C169.64 181.28 170.25 182.57 169.75 183.98C168.8 186.69 170.08 188.19 172.05 189.57C172.39 189.82 172.51 190.37 172.73 190.77Z" fill="#D25555"/>
<path d="M170.39 230.04C171.46 229.95 172.52 229.85 173.95 229.73C173.95 247.35 173.95 264.88 173.95 282.41C170.64 282.35 169.57 280.59 169.83 276.09C170.11 271.28 170.28 266.46 170.37 261.64C170.56 251.68 170.67 241.72 170.79 231.76C170.79 231.19 170.53 230.61 170.39 230.04Z" fill="#EC5353"/>
<path d="M162.12 272.35C162.12 271.31 162.12 270.27 162.12 269.23C163.89 270.27 163.91 271.31 162.12 272.35Z" fill="#EC5353"/>
<path d="M162.07 277.03C162.07 276.83 162.07 276.63 162.08 276.43C162.66 276.75 163.23 277.06 163.81 277.38C163.65 277.62 163.49 277.86 163.33 278.1C162.91 277.75 162.49 277.39 162.07 277.03Z" fill="#EC5353"/>
<path d="M136.49 272.28C136.39 272.28 136.29 272.28 136.19 272.27C134.24 272.01 131.74 272.38 130.53 271.3C129.53 270.41 130.09 267.8 129.87 265.96C129.79 265.29 129.47 264.64 129.25 263.99C129.72 264.08 130.2 264.25 130.67 264.24C133.83 264.19 135.83 264.94 134.83 268.86C134.58 269.8 135.89 271.13 136.49 272.28Z" fill="#D25555"/>
<path d="M137 305.58C135.26 305.05 133.51 304.52 131.77 303.99C131.69 303.66 131.61 303.33 131.53 303.01C135.15 301.39 137.3 298.78 137.6 294.94C137.54 296.61 138.08 298.68 137.29 299.85C135.89 301.92 136.24 303.63 137 305.58Z" fill="#D25555"/>
<path d="M137.59 282.35C137.59 280.4 137.58 278.45 137.58 276.49C137.59 278.44 137.59 280.39 137.59 282.35Z" fill="#D25555"/>
<path d="M98.4102 193.74C98.2202 193.71 98.0202 193.64 97.8302 193.66C93.2402 193.97 91.1202 191.73 91.1602 187.24C91.3402 187.12 91.5202 186.99 91.6902 186.87C93.3402 186.93 95.0002 186.99 96.6502 187.05C97.2402 189.28 97.8302 191.51 98.4102 193.74Z" fill="#D25555"/>
<path d="M99.3801 197.8C98.8501 198.56 97.91 199.3 97.87 200.08C97.71 203.84 97.83 207.6 97.77 211.36C97.76 212.33 97.7201 213.44 97.2501 214.21C96.8301 214.89 95.81 215.5 95.02 215.55C94.6 215.58 93.71 214.35 93.7 213.68C93.59 207.94 93.62 202.2 93.64 196.45C93.65 194.27 95.08 194.08 96.71 194.5C97.64 194.73 98.5 195.23 99.39 195.61C99.4 196.34 99.3901 197.07 99.3801 197.8Z" fill="#F87272"/>
<path d="M99.4101 194.79C99.2601 194.72 99.14 194.62 99.05 194.48C99.24 194.49 99.3601 194.6 99.4101 194.79Z" fill="#F87272"/>
<path d="M168.04 189C168.62 189.19 169.2 189.39 169.78 189.59C169.98 196.7 170.16 203.81 170.4 210.91C170.52 214.4 170.8 217.88 170.88 221.38C170.89 222.03 170.43 222.9 169.9 223.27C169.6 223.48 168.42 223.08 168.18 222.65C167.39 221.24 166.35 219.7 166.31 218.18C166.13 210.06 166.13 201.93 166.31 193.81C166.35 192.19 167.43 190.6 168.04 189Z" fill="#F87272"/>
<path d="M135.06 257.44V100.88" stroke="#231F20" stroke-width="2" stroke-miterlimit="10"/>
<path d="M98.2302 182.39V99.6899" stroke="#231F20" stroke-width="2" stroke-miterlimit="10"/>
<path d="M170.88 177.91V97.9399" stroke="#231F20" stroke-width="2" stroke-miterlimit="10"/>
</svg>
