<?xml version="1.0" encoding="utf-8"?>
<!-- Generator: Adobe Illustrator 24.2.0, SVG Export Plug-In . SVG Version: 6.00 Build 0)  -->
<svg version="1.1" id="Layer_1" xmlns="http://www.w3.org/2000/svg" xmlns:xlink="http://www.w3.org/1999/xlink" x="0px" y="0px"
	 viewBox="0 0 1360.8 885.6" style="enable-background:new 0 0 1360.8 885.6;" xml:space="preserve">
<style type="text/css">
	.st0{fill-rule:evenodd;clip-rule:evenodd;fill:#D71920;}
	.st1{fill:none;stroke:#FFFFFF;stroke-width:0.216;stroke-miterlimit:2.6131;}
	.st2{fill:none;stroke:#000000;stroke-width:5.2222;stroke-linecap:round;stroke-linejoin:round;stroke-miterlimit:2.6131;}
	.st3{fill:none;stroke:#000000;stroke-width:0.216;stroke-miterlimit:2.6131;}
	.st4{fill:none;stroke:#000000;stroke-width:5.2222;stroke-miterlimit:2.6131;}
</style>
<g>
	<path class="st0" d="M779.63,334.47v72.51c4.34,0,8.72-1.31,13.14-3.92c4.42-2.61,7-5.41,7.75-8.38v-36.04
		c0-1.27,3.07-5.62,9.21-13.04c6.14-7.42,11.08-11.13,14.82-11.13c3.44,0,5.54,0.95,6.29,2.86c0.75,1.91,1.12,4.49,1.12,7.74v47.71
		c0,4.81,1.24,8.37,3.67,10.71c2.47,2.33,5.69,3.5,9.73,3.5c3.56,0,7.64-1.48,12.17-4.45c4.53-2.97,8.27-7.14,11.27-12.51
		c-5.32,4.66-9.51,7-12.54,7c-2.28,0-3.41-1.55-3.41-4.66V388v-9.65v-16.64v-13.04v-6.25v-6.25c0-7.07-0.9-12.37-2.66-15.9
		c-1.8-3.53-5.43-5.3-10.93-5.3c-7.11,0-13.92,3.57-20.36,10.71c-6.48,7.14-12.58,15.02-18.38,23.64v-7.85
		c0-9.05-0.56-15.73-1.68-20.04c-1.12-4.31-3.78-6.47-7.97-6.47c-2.69,0-6.4,1.94-11.12,5.83c-4.72,3.89-9.92,9.22-15.61,16.01
		c6.29-3.82,10.56-5.73,12.8-5.73C778.73,331.07,779.63,332.2,779.63,334.47"/>
	<path class="st0" d="M712.92,395.74v-39.65c3.89-4.95,7.97-9.86,12.24-14.73c4.27-4.88,7.82-7.32,10.67-7.32
		c2.69,0,4.6,0.99,5.73,2.97c1.12,1.98,1.68,4.52,1.68,7.63c0,2.54-0.41,5.48-1.23,8.8c-0.82,3.32-1.61,5.69-2.36,7.1
		c5.54-5.09,11.15-10.57,16.85-16.43c5.69-5.87,8.54-11.2,8.54-16.01c0-3.96-1.16-7.31-3.48-10.07c-2.32-2.76-5.5-4.13-9.55-4.13
		c-7.19,0-14.45,4.1-21.79,12.3c-5.84,7.49-11.6,14.98-17.29,22.47v-9.54c0-9.33-0.56-15.87-1.69-19.61
		c-1.12-3.75-3.78-5.62-7.97-5.62c-2.99,0-7.56,2.9-13.7,8.69c-6.14,5.8-10.41,11.03-12.8,15.69c2.25-2.12,4.27-3.64,6.06-4.56
		c1.8-0.92,3.37-1.38,4.72-1.38c3,0,4.49,1.48,4.49,4.45v70.18c4.49-0.56,8.46-2.01,11.9-4.35
		C707.38,400.3,710.37,398,712.92,395.74"/>
	<path class="st0" d="M619.93,380.9l54.58-51.52c-6.59-6.22-11.79-10.32-15.61-12.3c-3.82-1.98-8.65-2.97-14.49-2.97
		c-14.37,0-26.43,4.95-36.16,14.84c-9.73,9.89-14.6,23.04-14.6,39.44c0,9.33,2.77,18.02,8.31,26.08
		c5.54,8.06,14.97,12.09,28.3,12.09c9.28,0,17.52-2.15,24.71-6.47c7.19-4.31,13.78-10.78,19.76-19.4
		c-3.89,2.69-8.27,5.23-13.14,7.63c-4.87,2.4-10.07,3.6-15.61,3.6c-5.54,0-10.52-0.67-14.94-2.02
		C626.63,388.57,622.93,385.56,619.93,380.9 M615.44,367.01c-0.45-3.04-0.67-6.25-0.67-9.65c0-8.06,1.5-15.02,4.49-20.88
		c3-5.87,7.11-8.8,12.35-8.8c4.19,0,7.56,1.38,10.11,4.13c2.55,2.76,3.82,6.61,3.82,11.56c0,4.1-3.97,10.18-11.9,18.23l-15.72,14.42
		C616.71,373.05,615.89,370.05,615.44,367.01z"/>
	<path class="st0" d="M548.96,320.9v47.28c-4.19,3.53-8.35,6.33-12.47,8.38c-4.12,2.05-7.97,3.07-11.57,3.07
		c-4.19,0-7.49-1.63-9.88-4.88c-2.4-3.25-3.59-8.34-3.59-15.27c0-10.04,3.44-18.98,10.33-26.82
		C528.67,324.82,537.73,320.9,548.96,320.9 M570.07,393.41V281.25c0-2.12,3.89-3.43,11.68-3.92c7.79-0.49,14.07-4.84,18.87-13.04
		h-19.99c-9.73,0-17.44,3.5-23.13,10.49c-5.69,7-8.54,15.58-8.54,25.76v14.42c-17.22,0-31.37,5.3-42.45,15.9
		c-11.08,10.6-16.62,25.51-16.62,44.74c0,9.47,1.98,17.07,5.95,22.79c3.97,5.72,8.5,8.59,13.59,8.59c4.64,0,10.14-2.69,16.51-8.06
		c6.36-5.37,14.04-12.3,23.02-20.78v11.45c0,5.09,1.91,9.26,5.73,12.51c3.82,3.25,6.93,4.88,9.32,4.88
		c4.19-0.42,8.61-2.44,13.25-6.04c4.64-3.6,7.86-7.24,9.66-10.92c-4.19,2.26-7.22,3.85-9.1,4.77c-1.87,0.92-3.48,1.38-4.83,1.38
		C571.19,396.16,570.22,395.25,570.07,393.41z"/>
	<path class="st0" d="M461.81,391.93c10.18-10.04,15.27-21.56,15.27-34.56c0-12.3-3.48-22.62-10.44-30.96
		c-6.96-8.34-16.58-12.51-28.86-12.51c-12.88,0-24.26,4.95-34.14,14.84c-9.88,9.89-14.83,21.2-14.83,33.92
		c0,12.72,3.52,23.29,10.56,31.7c7.04,8.41,16.47,12.61,28.3,12.61C440.25,406.98,451.63,401.96,461.81,391.93 M413.41,382.17
		c-3.22-9.75-4.83-20.42-4.83-32.01c0-7.63,1.95-13.92,5.84-18.87c3.89-4.95,9.14-7.42,15.72-7.42c9.73,0,16.62,4.77,20.66,14.31
		c4.04,9.54,6.06,20.04,6.06,31.48c0,7.92-2.02,14.42-6.06,19.51c-4.04,5.09-9.28,7.63-15.72,7.63
		C423.86,396.8,416.63,391.93,413.41,382.17z"/>
	<path class="st0" d="M389.6,414.96c-13.55-18.3-23.96-37.7-31.22-58.23c-7.26-20.57-10.89-36.86-10.89-48.87
		c0-9.79,2.62-18.8,7.86-27c5.24-8.23,12.5-12.33,21.79-12.33c4.34,0,8.46,0.74,12.35,2.23c3.89,1.48,7.34,3.78,10.33,6.89
		c-1.95-3.96-4.9-7.14-8.87-9.54c-3.97-2.4-9.25-3.6-15.83-3.6c-14.08,0-25.87,5.58-35.38,16.75
		c-9.51,11.17-17.33,24.74-23.47,40.71c-2.99,9.19-5.91,18.3-8.76,27.35c-2.1-5.51-4.38-12.44-6.85-20.78
		c-2.47-8.34-5.13-17.53-7.97-27.56c-2.85-10.04-7.19-18.62-13.03-25.76c-5.84-7.14-13.93-10.71-24.26-10.71
		c-28.75,0-50.95,5.58-66.59,16.75c-15.65,11.17-23.47,27.63-23.47,49.4c0,14.42,2.28,24.81,6.85,31.17
		c4.57,6.36,9.17,11.31,13.81,14.84c2.25,0,4.98-0.71,8.2-2.12c3.22-1.41,4.83-3.04,4.83-4.88c-5.24-6.5-10.41-13.07-15.5-19.72
		c-4.64-8.48-6.96-18.38-6.96-29.68c0-15.27,5.39-27.35,16.17-36.26c10.78-8.9,25.38-13.36,43.8-13.36
		c10.18,0,16.77,2.76,19.76,8.27c3,5.51,4.49,15.13,4.49,28.84c0,10.88-1.95,25.87-5.84,44.95c-3.89,19.08-10.59,36.4-20.1,51.94
		c-9.51,15.55-22.12,23.32-37.85,23.32c-7.19,0-13.89-1.52-20.1-4.56c-6.21-3.04-11.27-6.82-15.16-11.34
		c0,11.03,3.29,20.57,9.88,28.62c6.59,8.06,14.45,12.08,23.58,12.08c14.67,0,27.4-9.19,38.18-27.56
		c10.78-18.38,19.02-39.19,24.71-62.44c5.69-23.25,8.54-41.03,8.54-53.32c2.1,5.65,5.65,15.44,10.67,29.36
		c5.02,13.92,9.51,25.8,13.48,35.62c3.97,9.82,7.6,17.42,10.89,22.79c2.4-10.32,6.36-24.67,11.9-43.04
		c5.54-18.38,10.33-31.31,14.37-38.8l3.14,35.73c4.34,27.21,13.03,50.99,26.05,71.24c13.03,20.29,32.72,30.43,59.07,30.43h20.89
		C418.99,445.85,403.15,433.23,389.6,414.96"/>
	<path class="st0" d="M745.69,516.69l42.76-45.16l1.55,15.73l40.58-28.03l-47.73,52.79l-1.09-17.28
		C781.77,494.73,745.69,517,745.69,516.69"/>
	<path class="st0" d="M284.38,483.11c12.43,0,23.88,2.97,34.36,8.9c9.58,8.2,19.24,16.4,28.97,24.6c-1.5-4.95-4.75-11.49-9.77-19.61
		c-5.02-8.13-7.53-14.95-7.53-20.46h-80.41v-3.18l-3.37,3.18c-30.85,0-52.71,4.84-65.58,14.52c-12.88,9.68-19.32,23.57-19.32,41.66
		c0,15.13,3.45,27.71,10.33,37.74c6.89,10.04,19.09,15.05,36.61,15.05c-12.58-6.64-21.67-14.03-27.29-22.16
		c-5.62-8.13-8.42-20.18-8.42-36.15c0-15.97,4.87-27.31,14.6-34.03c9.73-6.71,26.73-10.07,50.98-10.07
		c-7.48,13.29-12.17,22.3-14.04,27.03c-1.87,4.74-2.81,10.42-2.81,17.07v74.42c0,7.21-4.49,13.43-13.48,18.66l-8.53,4.24h130.72
		c3.15-6.5,6.55-13.68,10.22-21.52c3.67-7.84,5.88-15.09,6.63-21.73c-6.44,12.44-15.27,21.87-26.5,28.3
		c-11.23,6.43-24.26,9.65-39.08,9.65c-13.18,0-21.75-1.2-25.72-3.6c-3.97-2.4-5.95-9.4-5.95-20.99c0-18.66,6.4-34.24,19.2-46.75
		c12.8-12.51,23.25-18.76,31.33-18.76c3.89,0,6.93,0.88,9.1,2.65c2.17,1.77,3.26,5.55,3.26,11.34c0,2.4-0.22,5.44-0.67,9.12
		c3.15-5.37,4.72-10.39,4.72-15.05c0-5.09-1.57-9.19-4.72-12.3c-3.14-3.11-7.64-4.67-13.48-4.67c-10.63,0-19.58,2.72-26.84,8.16
		c-7.26,5.44-14.56,12.47-21.9,21.1v-66.36H284.38z"/>
	<path class="st0" d="M364.9,483.85c-5.91,7.14-8.87,15.8-8.87,25.97v88.2c0,5.51,1.01,9.86,3.03,13.04
		c2.02,3.18,5.28,4.77,9.77,4.77c4.64,0,9.85-2.44,15.61-7.31c5.76-4.88,10.52-10.57,14.26-17.07c-3.74,3.11-7.15,5.62-10.22,7.53
		c-3.07,1.91-5.51,2.86-7.3,2.86c-2.1,0-3.14-1.27-3.14-3.82V490.11c0-2.12,3.82-3.43,11.45-3.92c7.64-0.49,13.85-4.84,18.64-13.04
		h-20.21C378.49,473.15,370.81,476.72,364.9,483.85"/>
	<path class="st0" d="M428.8,566.22c0-8.06,1.5-15.02,4.49-20.88c3-5.87,7.11-8.8,12.35-8.8c4.19,0,7.56,1.38,10.11,4.13
		c2.55,2.76,3.82,6.61,3.82,11.56c0,4.1-3.97,10.18-11.9,18.23l-15.72,14.42c-1.2-2.97-2.02-5.97-2.47-9.01
		C429.02,572.83,428.8,569.62,428.8,566.22 M422.28,537.81c-9.73,9.89-14.6,23.04-14.6,39.44c0,9.33,2.77,18.02,8.31,26.08
		c5.54,8.06,14.97,12.08,28.3,12.08c9.28,0,17.52-2.15,24.71-6.47c7.19-4.31,13.78-10.78,19.76-19.4
		c-3.89,2.69-8.27,5.23-13.14,7.63c-4.87,2.4-10.07,3.6-15.61,3.6c-5.54,0-10.52-0.67-14.94-2.02c-4.42-1.34-8.12-4.35-11.12-9.01
		l54.58-51.52c-6.59-6.22-11.79-10.32-15.61-12.3c-3.82-1.98-8.65-2.97-14.49-2.97C444.07,522.97,432.02,527.92,422.28,537.81z"/>
	<path class="st0" d="M512.8,538.03c-9.88,9.89-14.83,22.97-14.83,39.22c0,10.74,2.02,19.79,6.07,27.14
		c4.04,7.35,13.33,11.03,27.85,11.03c10.48,0,18.68-1.73,24.59-5.19c5.92-3.46,11.87-9.51,17.86-18.13
		c-4.49,2.83-8.83,5.19-13.03,7.1c-4.19,1.91-8.08,2.86-11.68,2.86c-8.54,0-16.13-2.79-22.8-8.37c-6.66-5.58-9.99-15.16-9.99-28.73
		c0-7.63,1.76-14.31,5.28-20.04c3.52-5.73,8.05-8.59,13.59-8.59c5.84,0,11.53,1.98,17.07,5.94c5.54,3.96,8.98,9.12,10.33,15.48
		c2.85-1.55,6.22-4.24,10.11-8.06c3.89-3.82,5.84-6.43,5.84-7.85c0-5.23-3.22-9.65-9.66-13.25c-6.44-3.6-12.58-5.41-18.42-5.41
		C535.41,523.18,522.68,528.13,512.8,538.03"/>
	<path class="st0" d="M594.33,532.72v59.37c0,8.9,0.86,15.09,2.58,18.55s4.83,5.19,9.32,5.19c5.84,0,11.6-2.44,17.29-7.31
		c5.69-4.88,10.63-11.06,14.82-18.55c-4.49,3.96-8.35,6.89-11.57,8.8c-3.22,1.91-5.88,2.86-7.97,2.86c-2.55,0-3.82-1.55-3.82-4.66
		v-64.24c3.29-0.14,6.7-0.67,10.22-1.59c3.52-0.92,6.25-3.43,8.2-7.53h-18.42v-33.29c-7.04,16.96-14.34,27.46-21.9,31.49
		c-7.56,4.03-11.57,7.67-12.01,10.92H594.33z"/>
	<path class="st0" d="M654.3,545.66v70.18c4.49-0.56,8.46-2.01,11.9-4.35c3.44-2.33,6.44-4.63,8.98-6.89v-39.65
		c3.89-4.95,7.97-9.86,12.24-14.73c4.27-4.88,7.82-7.32,10.67-7.32c2.69,0,4.6,0.99,5.73,2.97c1.12,1.98,1.68,4.52,1.68,7.63
		c0,2.54-0.41,5.48-1.24,8.8c-0.82,3.32-1.61,5.69-2.36,7.1c5.54-5.09,11.16-10.57,16.85-16.43c5.69-5.87,8.53-11.2,8.53-16.01
		c0-3.96-1.16-7.31-3.48-10.07c-2.32-2.76-5.5-4.13-9.55-4.13c-7.19,0-14.45,4.1-21.79,12.3c-5.84,7.49-11.6,14.98-17.29,22.47
		v-9.54c0-9.33-0.56-15.87-1.69-19.61c-1.12-3.75-3.78-5.62-7.97-5.62c-2.99,0-7.56,2.9-13.7,8.69c-6.14,5.8-10.41,11.03-12.8,15.69
		c2.25-2.12,4.27-3.64,6.06-4.56c1.8-0.92,3.37-1.38,4.72-1.38C652.8,541.21,654.3,542.69,654.3,545.66"/>
	<path class="st0" d="M751.78,537.6v62.55c0,4.24,1.2,7.92,3.59,11.03c2.4,3.11,5.54,4.66,9.43,4.66c4.64,0,8.8-1.34,12.47-4.03
		c3.67-2.69,7.3-6.93,10.89-12.72l-4.72,3.6c-2.4,1.84-4.49,2.76-6.29,2.76c-2.55,0-4.12-1.98-4.72-5.94v-59.58
		c0-4.66-0.94-8.69-2.81-12.09c-1.87-3.39-5.13-5.09-9.77-5.09c-4.79,0-9.88,2.33-15.27,7c-5.39,4.66-8.46,8.34-9.21,11.03
		c5.99-4.81,10.41-7.21,13.25-7.21C750.73,533.57,751.78,534.92,751.78,537.6"/>
	<path class="st0" d="M795.12,577.25c0,10.74,2.02,19.79,6.06,27.14c4.04,7.35,13.33,11.03,27.85,11.03
		c10.48,0,18.68-1.73,24.59-5.19c5.92-3.46,11.87-9.51,17.86-18.13c-4.49,2.83-8.83,5.19-13.03,7.1c-4.19,1.91-8.08,2.86-11.68,2.86
		c-8.54,0-16.14-2.79-22.8-8.37c-6.66-5.58-9.99-15.16-9.99-28.73c0-7.63,1.76-14.31,5.28-20.04c3.52-5.73,8.05-8.59,13.59-8.59
		c5.84,0,11.53,1.98,17.07,5.94c5.54,3.96,8.99,9.12,10.33,15.48c2.84-1.55,6.22-4.24,10.11-8.06c3.89-3.82,5.84-6.43,5.84-7.85
		c0-5.23-3.22-9.65-9.66-13.25c-6.44-3.6-12.58-5.41-18.42-5.41c-15.57,0-28.3,4.95-38.18,14.84
		C800.06,547.92,795.12,561,795.12,577.25"/>
	<path class="st0" d="M920.45,588.49c-4.19,0-7.49-1.63-9.88-4.88c-2.4-3.25-3.59-8.34-3.59-15.27c0-10.04,3.44-18.98,10.33-26.82
		c6.89-7.84,15.95-11.77,27.18-11.77v47.28c-4.19,3.53-8.35,6.33-12.46,8.38C927.9,587.46,924.05,588.49,920.45,588.49
		 M885.41,584.46c0,9.47,1.98,17.03,5.95,22.69c3.97,5.65,8.5,8.48,13.59,8.48c4.64,0,10.11-2.62,16.4-7.84
		c6.29-5.23,14-12.16,23.13-20.78v11.45c0,5.23,1.91,9.4,5.73,12.51c3.82,3.11,6.93,4.67,9.32,4.67c4.19,0,8.57-1.84,13.14-5.51
		c4.57-3.67,7.82-7.42,9.77-11.24c-4.19,2.26-7.22,3.85-9.1,4.77c-1.87,0.92-3.48,1.38-4.83,1.38c-1.8,0-2.77-0.92-2.92-2.75v-78.45
		h-19.54c-17.97,0-32.57,5.3-43.8,15.9C891.03,550.32,885.41,565.24,885.41,584.46z"/>
	<path class="st0" d="M987.83,509.83v88.2c0,5.51,1.01,9.86,3.03,13.04c2.02,3.18,5.28,4.77,9.77,4.77c4.64,0,9.84-2.44,15.61-7.31
		c5.76-4.88,10.52-10.57,14.26-17.07c-3.74,3.11-7.15,5.62-10.22,7.53c-3.07,1.91-5.5,2.86-7.3,2.86c-2.09,0-3.14-1.27-3.14-3.82
		V490.11c0-2.12,3.82-3.43,11.45-3.92c7.64-0.49,13.85-4.84,18.64-13.04h-20.21c-9.44,0-17.11,3.57-23.02,10.71
		C990.79,490.99,987.83,499.65,987.83,509.83"/>
	<path class="st0" d="M1037.92,545.76c0,10.39,3.07,17.78,9.21,22.16c6.14,4.42,14.67,8.98,25.61,13.64
		c10.93,4.7,16.4,9.19,16.4,13.43c0,8.8-5.17,13.22-15.5,13.22c-8.98,0-16.69-2.97-23.13-8.91c-6.44-5.94-11.08-12.58-13.93-19.93
		c0,15.69,1.57,25.55,4.72,29.58c3.15,4.03,10.48,6.04,22.01,6.04c11.38,0,20.78-1.84,28.19-5.55c7.41-3.67,11.12-11.2,11.12-22.58
		c0-9.65-3.26-16.68-9.77-21.1c-6.51-4.42-15.38-8.84-26.61-13.32c-11.23-4.49-16.84-8.48-16.84-12.05c0-3.11,1.12-5.62,3.37-7.46
		c2.25-1.84,6.14-2.76,11.68-2.76c5.54,0,10.41,1.02,14.6,3.04c4.19,2.05,8.69,5.62,13.48,10.74c0.9-3.11,1.95-6.57,3.15-10.39
		c1.2-3.82,3.07-7.63,5.61-11.45c-2.85,1.27-5.09,2.09-6.74,2.44c-1.65,0.35-3.67,0.53-6.06,0.53c-0.75,0-3.37-0.5-7.86-1.49
		c-4.49-0.99-8.01-1.48-10.56-1.48c-9.73,0-17.52,1.7-23.36,5.09C1040.84,530.64,1037.92,536.82,1037.92,545.76"/>
	<path class="st0" d="M1020.83,371.65v6.25l45.13,65.63c0,0-17.28,12.74-52.57,12.74c-35.29,0-49.21-14.18-49.21-14.18l46.33-64.91
		v-5.05c0,0,0.96-2.64,5.52-2.64C1020.59,369.49,1021.07,372.13,1020.83,371.65z"/>
	<path class="st1" d="M1020.83,371.65v6.25l45.13,65.63c0,0-17.28,12.74-52.57,12.74c-35.29,0-49.21-14.18-49.21-14.18l46.33-64.91
		v-5.05c0,0,0.96-2.64,5.52-2.64C1020.59,369.49,1021.07,372.13,1020.83,371.65z"/>
	<path class="st2" d="M1017.11,364.2c0,0,3.72-102.65,65.89-103.13c62.17-0.48,67.93,76.2,67.69,91.59l-1.2,75.73"/>
	<path class="st0" d="M1013.57,359.3h7.44c1.16,0,2.1,0.95,2.1,2.1v0c0,1.16-0.95,2.1-2.1,2.1h-7.44c-1.16,0-2.1-0.94-2.1-2.1v0
		C1011.47,360.25,1012.42,359.3,1013.57,359.3z"/>
	<path class="st3" d="M1013.57,359.3h7.44c1.16,0,2.1,0.95,2.1,2.1v0c0,1.16-0.95,2.1-2.1,2.1h-7.44c-1.16,0-2.1-0.94-2.1-2.1v0
		C1011.47,360.25,1012.42,359.3,1013.57,359.3z"/>
	<path class="st0" d="M1144.09,343.97h34.69v14.06h-34.69c-1.72,0-3.12-1.4-3.12-3.12v-7.82
		C1140.97,345.38,1142.38,343.97,1144.09,343.97z"/>
	<path class="st3" d="M1144.09,343.97h34.69v14.06h-34.69c-1.72,0-3.12-1.4-3.12-3.12v-7.82
		C1140.97,345.38,1142.38,343.97,1144.09,343.97z"/>
	<rect x="1144.09" y="409.97" class="st0" width="24.36" height="15.51"/>
	<rect x="1144.09" y="409.97" class="st3" width="24.36" height="15.51"/>
	<polyline class="st4" points="1167.49,571.68 1167.49,350.99 1167.49,572.3 	"/>
	<path class="st0" d="M1171.97,560.14l27.09,47.89c-23.3,12.12-50.29,6.49-61.52,0.06l24.85-47.96L1171.97,560.14z"/>
	<path class="st3" d="M1171.97,560.14l27.09,47.89c-23.3,12.12-50.29,6.49-61.52,0.06l24.85-47.96L1171.97,560.14z"/>
</g>
</svg>
